<svg width="190" height="86" viewBox="0 0 190 86" fill="none" xmlns="http://www.w3.org/2000/svg">
<mask id="mask0_1_12474" style="mask-type:luminance" maskUnits="userSpaceOnUse" x="0" y="0" width="190" height="86">
<path d="M189.184 0H0V85.8414H189.184V0Z" fill="white"/>
</mask>
<g mask="url(#mask0_1_12474)">
<path fill-rule="evenodd" clip-rule="evenodd" d="M14.7868 39.9315L0 32.0217V7.9098L14.7868 0V39.9315Z" fill="white"/>
<path fill-rule="evenodd" clip-rule="evenodd" d="M42.9928 39.9315L57.7797 32.0217V7.9098L42.9928 0V39.9315Z" fill="white"/>
<path fill-rule="evenodd" clip-rule="evenodd" d="M14.7868 85.8415L0 77.9317V53.8056L14.7868 45.8958V85.8415Z" fill="white"/>
<path fill-rule="evenodd" clip-rule="evenodd" d="M42.9928 85.8415L57.7797 77.9317V53.8056L42.9928 45.8958V85.8415Z" fill="white"/>
<path fill-rule="evenodd" clip-rule="evenodd" d="M14.7871 0L28.8807 7.81535V24.4047L14.7871 16.594V0Z" fill="white"/>
<path fill-rule="evenodd" clip-rule="evenodd" d="M42.9885 0L28.8901 7.81535V24.4047L42.9885 16.594V0Z" fill="white"/>
<path fill-rule="evenodd" clip-rule="evenodd" d="M14.7871 62.4899L28.8807 54.6792V38.0852L14.7871 45.9005V62.4899Z" fill="white"/>
<path fill-rule="evenodd" clip-rule="evenodd" d="M42.988 62.4899L28.8896 54.6792V38.0852L42.988 45.9005V62.4899Z" fill="white"/>
<path d="M83.6998 38.5054V22.0908L83.564 22.1239L81.7233 26.6478L78.5055 33.9106H76.5945L73.344 26.5156L71.5687 22.0908L71.4329 22.1239V38.5054H68.6508V14.998H71.4657L75.3158 23.8805L77.5266 29.3159H77.625L79.9013 23.8097L83.6858 14.9932H86.468V38.5007H83.6858L83.6998 38.5054Z" fill="white"/>
<path d="M90.6318 38.5054V14.9979H102.993V17.633H93.4098V25.335H101.616V27.8662H93.4098V35.7712H102.993V38.5054H90.6318Z" fill="white"/>
<path d="M111.836 17.5291V38.5007H109.053V17.5291H103.728V14.9979H117.162V17.5291H111.836Z" fill="white"/>
<path d="M129.69 38.5054L128.215 33.1693H120.777L119.334 38.5054H116.487L123.255 14.9979H125.766L132.566 38.5054H129.686H129.69ZM125.874 24.5558L124.566 19.3566H124.431L123.124 24.5227L121.414 30.6381H127.578L125.868 24.5606L125.874 24.5558Z" fill="white"/>
<path d="M139.34 27.7481C139.34 29.7786 139.222 31.4503 138.988 32.7726C138.754 34.0901 138.407 35.1668 137.949 36.0026C137.489 36.8385 136.914 37.4807 136.225 37.9293C135.531 38.3826 134.726 38.7509 133.812 39.0438C133.635 38.6849 133.471 38.3213 133.325 37.9624C133.181 37.6034 133.016 37.2304 132.838 36.8479C133.419 36.5551 133.948 36.2435 134.431 35.9176C134.908 35.5918 135.321 35.1479 135.653 34.5812C135.986 34.0193 136.253 33.2778 136.441 32.3523C136.628 31.4314 136.726 30.2131 136.726 28.7067V14.9932H148.787V38.5007H146.004V17.5291H139.34V27.7434V27.7481Z" fill="white"/>
<path d="M157.527 27.7481C157.527 29.7786 157.41 31.4503 157.176 32.7726C156.941 34.0901 156.595 35.1668 156.136 36.0026C155.677 36.8385 155.101 37.4807 154.412 37.9293C153.719 38.3826 152.913 38.7509 152 39.0438C151.823 38.6849 151.658 38.3213 151.513 37.9624C151.367 37.6034 151.204 37.2304 151.026 36.8479C151.607 36.5551 152.136 36.2435 152.619 35.9176C153.096 35.5918 153.508 35.1479 153.841 34.5812C154.173 34.0193 154.441 33.2778 154.628 32.3523C154.815 31.4314 154.914 30.2131 154.914 28.7067V14.9932H166.974V38.5007H164.192V17.5291H157.527V27.7434V27.7481Z" fill="white"/>
<path d="M79.1102 70.6405V49.5981H71.4381V70.6405H68.6559V47.1331H81.9205V70.6405H79.1056H79.1102Z" fill="white"/>
<path d="M99.6761 54.1929C99.6761 55.0948 99.5548 55.9637 99.3067 56.809C99.0631 57.6544 98.674 58.3957 98.1493 59.0379C97.6245 59.6801 96.9365 60.1996 96.0888 60.5916C95.241 60.9835 94.2103 61.1818 93.0065 61.1818H89.0206V70.6405H86.2384V47.1331H92.8708C95.0349 47.1331 96.7116 47.7139 97.8967 48.8709C99.0818 50.0325 99.6717 51.8035 99.6717 54.1881L99.6761 54.1929ZM96.8616 54.1598C96.8616 52.8092 96.5474 51.742 95.9246 50.9534C95.2972 50.1648 94.2621 49.7729 92.8102 49.7729H89.0253V58.5562H92.8423C93.6249 58.5562 94.271 58.4335 94.7868 58.1832C95.3017 57.9376 95.714 57.607 96.0272 57.2057C96.3413 56.7996 96.5573 56.332 96.6786 55.8032C96.8 55.2743 96.8616 54.7265 96.8616 54.1645V54.1598Z" fill="white"/>
<path d="M102.459 70.6405V47.1331H114.82V49.7681H105.237V57.4702H113.443V60.0013H105.237V67.9063H114.82V70.6405H102.459Z" fill="white"/>
<path d="M130.463 66.2865C130.061 67.7739 129.284 68.9026 128.136 69.6818C126.984 70.4562 125.606 70.8481 124 70.8481C122.95 70.8481 122 70.6734 121.152 70.324C120.304 69.9745 119.588 69.4929 119.007 68.8696C118.426 68.2509 117.982 67.5143 117.667 66.6595C117.353 65.8048 117.199 64.8603 117.199 63.8214V53.9613C117.199 52.9697 117.349 52.0488 117.653 51.1941C117.953 50.3394 118.393 49.6027 118.974 48.9793C119.555 48.3607 120.267 47.8696 121.119 47.5107C121.967 47.1518 122.927 46.9723 124 46.9723C125.583 46.9723 126.951 47.3643 128.103 48.1529C129.255 48.9416 130.042 50.0466 130.463 51.4633L127.817 52.5116C127.593 51.6569 127.166 50.9674 126.529 50.4527C125.893 49.9332 125.049 49.6782 124 49.6782C123.354 49.6782 122.777 49.7963 122.277 50.0324C121.775 50.2686 121.354 50.5802 121.021 50.9627C120.684 51.3452 120.431 51.7939 120.248 52.3133C120.07 52.8327 119.981 53.3616 119.981 53.8999V63.897C119.981 64.4589 120.07 65.002 120.248 65.5168C120.426 66.0362 120.684 66.4895 121.021 66.8862C121.354 67.2781 121.775 67.5946 122.277 67.8306C122.777 68.0668 123.354 68.1848 124 68.1848C125.007 68.1848 125.836 67.9251 126.497 67.4056C127.157 66.8862 127.597 66.192 127.822 65.3137L130.469 66.2912L130.463 66.2865Z" fill="white"/>
<path d="M139.372 49.6687V70.6402H136.59V49.6687H131.265V47.1375H144.698V49.6687H139.372Z" fill="white"/>
<path d="M146.876 70.6406V47.1331H149.658V64.9644L149.794 64.9975L153.279 57.9707L158.805 47.1284H161.517V70.6358H158.703V52.7337H158.605L155.354 59.2505L149.559 70.6311H146.88L146.876 70.6406Z" fill="white"/>
<path d="M175.283 47.0999H178.098V57.3992H180.243C180.576 57.3992 180.941 57.3662 181.33 57.3C181.719 57.234 182.103 57.0781 182.468 56.842C182.838 56.6059 183.175 56.2612 183.489 55.8126C183.803 55.364 184.061 54.7453 184.257 53.9567L186.135 47.1661H188.814L186.974 54.0559C186.683 55.2034 186.276 56.1668 185.752 56.9459C185.227 57.7203 184.609 58.2351 183.892 58.4806C184.829 58.797 185.546 59.3542 186.037 60.1523C186.529 60.9504 186.931 61.9374 187.241 63.1085L189.185 70.6405H186.271L184.496 63.5807C184.294 62.7921 184.051 62.164 183.761 61.6871C183.471 61.2149 183.148 60.8465 182.792 60.5915C182.436 60.3318 182.047 60.157 181.634 60.0674C181.222 59.9776 180.801 59.9304 180.38 59.9304H178.103V70.6358H175.288V59.9304H172.979C172.552 59.9304 172.14 59.9776 171.738 60.0674C171.334 60.157 170.955 60.3318 170.599 60.5915C170.243 60.8512 169.911 61.2149 169.611 61.6871C169.311 62.1593 169.058 62.7921 168.857 63.5807L167.081 70.6405H164.169L166.145 63.1085C166.435 61.9374 166.824 60.9551 167.316 60.1523C167.808 59.3542 168.52 58.797 169.461 58.4806C168.637 58.2351 167.991 57.7203 167.536 56.9459C167.077 56.1668 166.693 55.2081 166.379 54.0559L164.571 47.1661H167.218L169.091 53.9567C169.293 54.7453 169.555 55.364 169.878 55.8126C170.201 56.2612 170.548 56.6059 170.918 56.842C171.288 57.0781 171.657 57.2292 172.042 57.3C172.421 57.3662 172.792 57.3992 173.148 57.3992H175.292V47.0999H175.283Z" fill="white"/>
</g>
</svg>
