<svg width="43" height="64" viewBox="0 0 43 64" fill="none" xmlns="http://www.w3.org/2000/svg">
<path fill-rule="evenodd" clip-rule="evenodd" d="M10.9425 29.7714L0 23.8741V5.89724L10.9425 0V29.7714Z" fill="#C12814"/>
<path fill-rule="evenodd" clip-rule="evenodd" d="M31.8154 29.7714L42.758 23.8741V5.89724L31.8154 0V29.7714Z" fill="#FF2A00"/>
<path fill-rule="evenodd" clip-rule="evenodd" d="M10.9425 63.9997L0 58.1025V40.115L10.9425 34.2178V63.9997Z" fill="#C12814"/>
<path fill-rule="evenodd" clip-rule="evenodd" d="M31.8154 63.9997L42.758 58.1025V40.115L31.8154 34.2178V63.9997Z" fill="#FF2A00"/>
<path fill-rule="evenodd" clip-rule="evenodd" d="M10.9429 0L21.3724 5.82682V18.1952L10.9429 12.3719V0Z" fill="#FF2A00"/>
<path fill-rule="evenodd" clip-rule="evenodd" d="M31.8119 0L21.3789 5.82682V18.1952L31.8119 12.3719V0Z" fill="#C12814"/>
<path fill-rule="evenodd" clip-rule="evenodd" d="M10.9429 46.5897L21.3724 40.7664V28.3945L10.9429 34.2213V46.5897Z" fill="#FF2A00"/>
<path fill-rule="evenodd" clip-rule="evenodd" d="M31.8119 46.5897L21.3789 40.7664V28.3945L31.8119 34.2213V46.5897Z" fill="#C12814"/>
</svg>
