<svg width="187" height="85" viewBox="0 0 187 85" fill="none" xmlns="http://www.w3.org/2000/svg">
<mask id="mask0_1_9026" style="mask-type:luminance" maskUnits="userSpaceOnUse" x="0" y="0" width="187" height="85">
<path d="M187 0H0V85H187V0Z" fill="white"/>
</mask>
<g mask="url(#mask0_1_9026)">
<path fill-rule="evenodd" clip-rule="evenodd" d="M14.6161 39.5401L0 31.7078V7.83227L14.6161 0V39.5401Z" fill="#C12814"/>
<path fill-rule="evenodd" clip-rule="evenodd" d="M42.4963 39.5401L57.1125 31.7078V7.83227L42.4963 0V39.5401Z" fill="#FF2A00"/>
<path fill-rule="evenodd" clip-rule="evenodd" d="M14.6161 84.9999L0 77.1677V53.2781L14.6161 45.4458V84.9999Z" fill="#C12814"/>
<path fill-rule="evenodd" clip-rule="evenodd" d="M42.4963 84.9999L57.1125 77.1677V53.2781L42.4963 45.4458V84.9999Z" fill="#FF2A00"/>
<path fill-rule="evenodd" clip-rule="evenodd" d="M14.6162 0L28.5471 7.73875V24.1655L14.6162 16.4314V0Z" fill="#FF2A00"/>
<path fill-rule="evenodd" clip-rule="evenodd" d="M42.4918 0L28.5563 7.73875V24.1655L42.4918 16.4314V0Z" fill="#C12814"/>
<path fill-rule="evenodd" clip-rule="evenodd" d="M14.6162 61.8774L28.5471 54.1433V37.7119L14.6162 45.4506V61.8774Z" fill="#FF2A00"/>
<path fill-rule="evenodd" clip-rule="evenodd" d="M42.4918 61.8774L28.5563 54.1433V37.7119L42.4918 45.4506V61.8774Z" fill="#C12814"/>
<path d="M82.7331 38.1279V21.8742L82.5989 21.9069L80.7794 26.3865L77.5987 33.5782H75.7098L72.4968 26.2556L70.7421 21.8742L70.6078 21.9069V38.1279H67.8578V14.8509H70.6402L74.4459 23.6463L76.6312 29.0284H76.7284L78.9784 23.5762L82.7193 14.8462H85.4693V38.1232H82.7193L82.7331 38.1279Z" fill="white"/>
<path d="M89.5853 38.1281V14.8511H101.804V17.4603H92.3312V25.0868H100.443V27.5932H92.3312V35.4207H101.804V38.1281H89.5853Z" fill="white"/>
<path d="M110.544 17.3574V38.1235H107.794V17.3574H102.53V14.8511H115.809V17.3574H110.544Z" fill="white"/>
<path d="M128.193 38.1281L126.735 32.8443H119.383L117.956 38.1281H115.142L121.832 14.8511H124.314L131.036 38.1281H128.189H128.193ZM124.42 24.3153L123.128 19.167H122.994L121.703 24.2825L120.013 30.338H126.105L124.415 24.32L124.42 24.3153Z" fill="white"/>
<path d="M137.731 27.476C137.731 29.4866 137.614 31.1419 137.383 32.4513C137.152 33.7559 136.809 34.822 136.356 35.6496C135.901 36.4773 135.332 37.1132 134.651 37.5574C133.966 38.0063 133.17 38.371 132.267 38.661C132.092 38.3056 131.929 37.9456 131.786 37.5902C131.643 37.2347 131.48 36.8654 131.304 36.4867C131.878 36.1967 132.401 35.8881 132.878 35.5655C133.35 35.2428 133.758 34.8033 134.087 34.2421C134.416 33.6857 134.68 32.9515 134.865 32.0351C135.05 31.1233 135.147 29.9169 135.147 28.4252V14.8462H147.068V38.1232H144.318V17.3571H137.731V27.4713V27.476Z" fill="white"/>
<path d="M155.708 27.476C155.708 29.4866 155.592 31.1419 155.361 32.4513C155.129 33.7559 154.787 34.822 154.333 35.6496C153.879 36.4773 153.31 37.1132 152.629 37.5574C151.944 38.0063 151.147 38.371 150.245 38.661C150.069 38.3056 149.907 37.9456 149.763 37.5902C149.619 37.2347 149.458 36.8654 149.282 36.4867C149.856 36.1967 150.379 35.8881 150.856 35.5655C151.328 35.2428 151.736 34.8033 152.065 34.2421C152.393 33.6857 152.657 32.9515 152.843 32.0351C153.027 31.1233 153.125 29.9169 153.125 28.4252V14.8462H165.046V38.1232H162.296V17.3571H155.708V27.4713V27.476Z" fill="white"/>
<path d="M78.1965 69.948V49.1118H70.613V69.948H67.8629V46.6709H80.9743V69.948H78.1919H78.1965Z" fill="white"/>
<path d="M98.5252 53.6615C98.5252 54.5546 98.4053 55.415 98.16 56.252C97.9192 57.0891 97.5347 57.8232 97.016 58.4591C96.4973 59.095 95.8173 59.6094 94.9793 59.9975C94.1413 60.3856 93.1225 60.5819 91.9326 60.5819H87.9927V69.948H85.2427V46.6709H91.7985C93.9376 46.6709 95.595 47.2461 96.7664 48.3917C97.9378 49.542 98.5208 51.2955 98.5208 53.6568L98.5252 53.6615ZM95.7432 53.6288C95.7432 52.2914 95.4327 51.2347 94.817 50.4538C94.1969 49.6729 93.1737 49.2848 91.7385 49.2848H87.9974V57.9821H91.7703C92.5439 57.9821 93.1825 57.8605 93.6923 57.6127C94.2013 57.3696 94.6088 57.0422 94.9184 56.6448C95.2289 56.2427 95.4424 55.7797 95.5623 55.2561C95.6823 54.7324 95.7432 54.1899 95.7432 53.6335V53.6288Z" fill="white"/>
<path d="M101.276 69.948V46.6709H113.494V49.2801H104.021V56.9067H112.133V59.413H104.021V67.2405H113.494V69.948H101.276Z" fill="white"/>
<path d="M128.957 65.637C128.559 67.1099 127.791 68.2275 126.656 68.999C125.518 69.7659 124.156 70.154 122.568 70.154C121.531 70.154 120.591 69.981 119.753 69.635C118.915 69.2889 118.207 68.812 117.633 68.1948C117.058 67.5822 116.619 66.8528 116.309 66.0064C115.998 65.1601 115.846 64.2249 115.846 63.1961V53.4327C115.846 52.4508 115.994 51.5389 116.295 50.6926C116.591 49.8462 117.026 49.1167 117.6 48.4995C118.174 47.887 118.878 47.4007 119.721 47.0453C120.559 46.6899 121.508 46.5122 122.568 46.5122C124.133 46.5122 125.485 46.9004 126.624 47.6812C127.762 48.4622 128.54 49.5564 128.957 50.9591L126.341 51.9972C126.119 51.1508 125.697 50.4682 125.068 49.9584C124.439 49.4441 123.605 49.1916 122.568 49.1916C121.929 49.1916 121.359 49.3085 120.865 49.5423C120.369 49.7761 119.953 50.0847 119.624 50.4635C119.29 50.8422 119.04 51.2865 118.86 51.8008C118.683 52.3151 118.596 52.8389 118.596 53.3719V63.2709C118.596 63.8274 118.683 64.3651 118.86 64.8749C119.035 65.3892 119.29 65.8381 119.624 66.2309C119.953 66.619 120.369 66.9323 120.865 67.1661C121.359 67.3999 121.929 67.5168 122.568 67.5168C123.564 67.5168 124.383 67.2596 125.036 66.7452C125.689 66.2309 126.124 65.5435 126.346 64.6738L128.962 65.6417L128.957 65.637Z" fill="white"/>
<path d="M137.763 49.1816V69.9477H135.012V49.1816H129.749V46.6753H143.027V49.1816H137.763Z" fill="white"/>
<path d="M145.18 69.9482V46.6711H147.93V64.3276L148.064 64.3604L151.509 57.4025L156.972 46.6665H159.652V69.9435H156.87V52.2168H156.773L153.56 58.6697L147.832 69.9388H145.184L145.18 69.9482Z" fill="white"/>
<path d="M173.259 46.6382H176.041V56.8365H178.162C178.491 56.8365 178.851 56.8038 179.236 56.7383C179.62 56.6729 180 56.5185 180.361 56.2848C180.727 56.051 181.06 55.7096 181.371 55.2654C181.68 54.8212 181.935 54.2086 182.129 53.4277L183.986 46.7037H186.634L184.815 53.5259C184.527 54.6622 184.125 55.6161 183.607 56.3876C183.088 57.1545 182.477 57.6642 181.768 57.9073C182.695 58.2206 183.403 58.7724 183.889 59.5626C184.375 60.3528 184.773 61.3302 185.079 62.4898L187 69.948H184.12L182.366 62.9574C182.166 62.1765 181.925 61.5546 181.639 61.0823C181.352 60.6147 181.033 60.25 180.681 59.9975C180.329 59.7403 179.944 59.5673 179.537 59.4785C179.129 59.3896 178.713 59.3428 178.296 59.3428H176.046V69.9433H173.263V59.3428H170.981C170.56 59.3428 170.152 59.3896 169.754 59.4785C169.356 59.5673 168.981 59.7403 168.629 59.9975C168.277 60.2547 167.949 60.6147 167.652 61.0823C167.356 61.5499 167.106 62.1765 166.907 62.9574L165.152 69.948H162.273L164.227 62.4898C164.513 61.3302 164.898 60.3575 165.384 59.5626C165.87 58.7724 166.574 58.2206 167.504 57.9073C166.689 57.6642 166.051 57.1545 165.602 56.3876C165.147 55.6161 164.768 54.6669 164.458 53.5259L162.671 46.7037H165.287L167.138 53.4277C167.338 54.2086 167.597 54.8212 167.916 55.2654C168.236 55.7096 168.579 56.051 168.944 56.2848C169.31 56.5185 169.675 56.6682 170.055 56.7383C170.43 56.8038 170.796 56.8365 171.148 56.8365H173.268V46.6382H173.259Z" fill="white"/>
</g>
</svg>
