<svg width="13" height="18" viewBox="0 0 13 18" fill="none" xmlns="http://www.w3.org/2000/svg">
<path d="M6.4927 0C2.90348 0 0 3.03304 0 6.78243C0 8.73333 0.933782 10.5013 1.85297 12.1322C2.97643 14.1594 4.31874 16.0492 5.87991 17.7258C6.21549 18.0914 6.77007 18.0914 7.12009 17.7258C8.49158 16.3083 9.70258 14.708 10.7239 13.0009C11.8182 11.1566 13 9.02277 13 6.78243C12.9854 3.04828 10.0819 0 6.4927 0ZM6.4927 10.7147C4.31874 10.7147 2.55331 8.8705 2.55331 6.59953C2.55331 4.32856 4.31874 2.48435 6.4927 2.48435C8.66667 2.48435 10.4321 4.31332 10.4321 6.59953C10.4321 8.88575 8.66667 10.7147 6.4927 10.7147Z" fill="white"/>
</svg>
