<svg width="30" height="30" viewBox="0 0 30 30" fill="none" xmlns="http://www.w3.org/2000/svg">
<g clip-path="url(#clip0_104_14)">
<path d="M23.8875 23.0984H19.4953C19.0664 23.0984 18.6251 22.7849 18.6251 22.3148V14.7304L17.2023 14.7222C16.8929 14.7222 16.6125 14.516 16.497 14.2974C16.3444 14.0046 16.3444 13.6747 16.5424 13.4066L21.0295 7.23685C21.1944 7.01002 21.4666 6.91104 21.71 6.91516C21.9863 6.91516 22.2214 7.05126 22.3987 7.29871L26.8404 13.4066C27.026 13.6623 27.0384 13.9757 26.9023 14.2644C26.8074 14.4747 26.5311 14.7181 26.2259 14.7181L24.7618 14.7304V22.2158C24.7618 22.7272 24.3948 23.0942 23.8875 23.0942V23.0984Z" fill="url(#paint0_linear_104_14)"/>
<path d="M13.5978 15.7158C16.3899 18.1243 16.5837 22.3433 14.0762 24.9951C11.5522 27.6593 7.32496 27.6676 4.7886 25.024C2.25637 22.3887 2.42134 18.1449 5.22989 15.7199V7.21175C5.22576 4.89398 7.06101 3.05048 9.3293 3.00099C11.6017 2.9515 13.5896 4.76613 13.5937 7.10865V15.7158H13.5978ZM12.2492 16.7757C12.0554 16.6272 11.9275 16.3798 11.9275 16.1406V7.21175C11.9275 5.77242 10.781 4.66302 9.37879 4.67952C7.97658 4.69602 6.90429 5.80129 6.90429 7.21175V16.0952C6.90429 16.4004 6.77232 16.6355 6.55787 16.8004C4.30195 18.5161 4.04625 21.77 5.94749 23.8156C7.84873 25.8612 11.0779 25.8241 12.9421 23.7537C14.8062 21.6834 14.5092 18.479 12.2492 16.7798V16.7757Z" fill="url(#paint1_linear_104_14)"/>
<path d="M10.2486 17.0437C12.0343 17.4808 13.2097 19.1511 13.0241 20.9492C12.8385 22.7474 11.2961 24.1826 9.46908 24.2073C7.62146 24.2321 6.05428 22.867 5.81508 21.0523C5.57588 19.2171 6.74714 17.4932 8.57414 17.0478V7.16631C8.57414 6.67553 9.00718 6.34148 9.41959 6.35385C9.88562 6.36622 10.2486 6.71677 10.2486 7.2158V17.0478V17.0437Z" fill="url(#paint2_linear_104_14)"/>
</g>
<defs>
<linearGradient id="paint0_linear_104_14" x1="21.6906" y1="6.91504" x2="21.6906" y2="23.0984" gradientUnits="userSpaceOnUse">
<stop stop-color="#D32300"/>
<stop offset="1" stop-color="#C12814"/>
</linearGradient>
<linearGradient id="paint1_linear_104_14" x1="9.41616" y1="3" x2="9.41616" y2="27" gradientUnits="userSpaceOnUse">
<stop stop-color="#D32300"/>
<stop offset="1" stop-color="#C12814"/>
</linearGradient>
<linearGradient id="paint2_linear_104_14" x1="9.41376" y1="6.35352" x2="9.41376" y2="24.2077" gradientUnits="userSpaceOnUse">
<stop stop-color="#D32300"/>
<stop offset="1" stop-color="#C12814"/>
</linearGradient>
<clipPath id="clip0_104_14">
<rect width="24" height="24" fill="white" transform="translate(3 3)"/>
</clipPath>
</defs>
</svg>
