<svg width="85" height="59" viewBox="0 0 85 59" fill="none" xmlns="http://www.w3.org/2000/svg">
<path d="M36.2472 10.7423C36.05 10.0086 35.4587 9.55957 34.6921 9.55957H12.7249C11.8817 9.55957 11.2246 10.2166 11.2246 11.0598V29.4681V33.1476C11.2246 33.9798 11.8817 34.6369 12.7249 34.6478H34.6921C35.4587 34.6478 36.061 34.1988 36.2472 33.4651V10.8189V10.7532V10.7423ZM23.7304 17.7836L28.8225 21.8135L28.8992 12.5601H33.2576V31.6583H14.2032V12.5601H18.5616V21.9121L23.7304 17.7946V17.7836ZM25.9096 15.6263L24.5627 14.7283C24.0918 14.4217 23.5223 14.3998 22.9967 14.6736L21.5512 15.6373V12.571H25.9096V15.6373V15.6263Z" fill="url(#paint0_linear_51_165637)"/>
<path d="M31.232 26.5664H22.8984V29.5341H31.232V26.5664Z" fill="url(#paint1_linear_51_165637)"/>
<path d="M71.9249 0H41.3065C40.3099 0 39.5215 0.777506 39.5215 1.77403V27.4317V32.5676C39.5215 33.5532 40.3099 34.3307 41.3065 34.3417H71.9249C72.8338 34.3417 73.5346 33.816 73.7755 32.9619V1.43455V1.41265C73.5456 0.547539 72.8338 0 71.9139 0H71.9249ZM60.0104 3.54805V8.72778L57.6341 7.15086C57.0646 6.78949 56.4076 6.75664 55.7725 7.08516L53.3085 8.72778V3.54805H60.0104ZM70.2494 30.7936H43.0586V3.54805H49.7605V16.24L56.6485 10.7537L63.438 16.1196L63.5366 3.54805H70.2494V30.7936Z" fill="url(#paint2_linear_51_165637)"/>
<path d="M66.7893 23.6973H55.8057V27.2015H66.7893V23.6973Z" fill="url(#paint3_linear_51_165637)"/>
<path d="M72.6804 38.8535H12.3307C8.0708 38.8535 4.61035 42.314 4.61035 46.5738C4.61035 50.8337 8.0708 54.2941 12.3307 54.2941H72.6804C76.9403 54.2941 80.4007 50.8337 80.4007 46.5738C80.4007 42.314 76.9403 38.8535 72.6804 38.8535ZM13.2396 50.9432C10.8304 50.9432 8.87021 48.983 8.87021 46.5738C8.87021 44.1646 10.8304 42.2045 13.2396 42.2045C15.6487 42.2045 17.6089 44.1646 17.6089 46.5738C17.6089 48.983 15.6487 50.9432 13.2396 50.9432ZM33.0167 50.9432C30.6075 50.9432 28.6473 48.983 28.6473 46.5738C28.6473 44.1646 30.6075 42.2045 33.0167 42.2045C35.4259 42.2045 37.3861 44.1646 37.3861 46.5738C37.3861 48.983 35.4259 50.9432 33.0167 50.9432ZM52.7829 50.9432C50.3737 50.9432 48.4135 48.983 48.4135 46.5738C48.4135 44.1646 50.3737 42.2045 52.7829 42.2045C55.192 42.2045 57.1522 44.1646 57.1522 46.5738C57.1522 48.983 55.192 50.9432 52.7829 50.9432ZM72.549 50.9432C70.1399 50.9432 68.1797 48.983 68.1797 46.5738C68.1797 44.1646 70.1399 42.2045 72.549 42.2045C74.9582 42.2045 76.9184 44.1646 76.9184 46.5738C76.9184 48.983 74.9582 50.9432 72.549 50.9432Z" fill="url(#paint4_linear_51_165637)"/>
<path d="M72.7789 34.3525H12.2211C5.49729 34.3525 0 39.8498 0 46.5736C0 53.2974 5.49729 58.7947 12.2211 58.7947H72.7789C79.5027 58.7947 85 53.2974 85 46.5736C85 39.8498 79.5027 34.3525 72.7789 34.3525ZM72.6804 56.4841H12.3306C6.86614 56.4841 2.42012 52.0381 2.42012 46.5736C2.42012 41.1092 6.86614 36.6632 12.3306 36.6632H72.6804C78.1448 36.6632 82.5908 41.1092 82.5908 46.5736C82.5908 52.0381 78.1448 56.4841 72.6804 56.4841Z" fill="url(#paint5_linear_51_165637)"/>
<defs>
<linearGradient id="paint0_linear_51_165637" x1="23.7359" y1="9.55957" x2="23.7359" y2="34.6478" gradientUnits="userSpaceOnUse">
<stop stop-color="#D32300"/>
<stop offset="1" stop-color="#C12814"/>
</linearGradient>
<linearGradient id="paint1_linear_51_165637" x1="27.0652" y1="26.5664" x2="27.0652" y2="29.5341" gradientUnits="userSpaceOnUse">
<stop stop-color="#D32300"/>
<stop offset="1" stop-color="#C12814"/>
</linearGradient>
<linearGradient id="paint2_linear_51_165637" x1="56.6485" y1="0" x2="56.6485" y2="34.3417" gradientUnits="userSpaceOnUse">
<stop stop-color="#D32300"/>
<stop offset="1" stop-color="#C12814"/>
</linearGradient>
<linearGradient id="paint3_linear_51_165637" x1="61.2975" y1="23.6973" x2="61.2975" y2="27.2015" gradientUnits="userSpaceOnUse">
<stop stop-color="#D32300"/>
<stop offset="1" stop-color="#C12814"/>
</linearGradient>
<linearGradient id="paint4_linear_51_165637" x1="42.5055" y1="38.8535" x2="42.5055" y2="54.2941" gradientUnits="userSpaceOnUse">
<stop stop-color="#D32300"/>
<stop offset="1" stop-color="#C12814"/>
</linearGradient>
<linearGradient id="paint5_linear_51_165637" x1="42.5" y1="34.3525" x2="42.5" y2="58.7947" gradientUnits="userSpaceOnUse">
<stop stop-color="#D32300"/>
<stop offset="1" stop-color="#C12814"/>
</linearGradient>
</defs>
</svg>
