<svg width="24" height="24" viewBox="0 0 24 24" fill="none" xmlns="http://www.w3.org/2000/svg">
<path d="M22.0226 11.1929H14.7975C13.686 11.1929 12.7989 10.3109 12.7989 9.19376V1.99911C12.7935 0.887305 13.686 0 14.7975 0H21.9959C23.1075 0 23.9946 0.887305 23.9946 1.99911V9.19911C23.9946 10.2788 23.1395 11.1929 22.0226 11.1929ZM20.8202 6.39822C21.2958 6.39822 21.6058 5.97595 21.5951 5.57506C21.5844 5.17417 21.2478 4.8 20.7935 4.8H15.9946C15.5296 4.8 15.1823 5.19555 15.193 5.62316C15.2037 6.05078 15.5403 6.40356 15.9892 6.40356H20.8149L20.8202 6.39822Z" fill="#C12814"/>
<path d="M9.22913 23.9951H1.99866C0.887108 24.0004 0 23.1078 0 21.996V14.796C0 13.6842 0.887108 12.7969 1.99866 12.7969H9.19706C10.3086 12.7969 11.1957 13.6842 11.1957 14.796V21.996C11.1957 23.0757 10.3407 23.9897 9.22378 23.9897L9.22913 23.9951ZM7.87709 19.5479L6.72812 18.3987L7.8664 17.2601C8.1817 16.9448 8.17101 16.453 7.87709 16.143C7.58317 15.833 7.08083 15.7955 6.76553 16.1056L5.60053 17.2655L4.40882 16.0842C4.10421 15.7848 3.59118 15.865 3.32398 16.143C3.05678 16.4209 2.998 16.9073 3.29192 17.2013L4.47295 18.3933L3.31329 19.5586C3.00334 19.8739 3.05144 20.3871 3.3507 20.6704C3.64997 20.9537 4.13627 20.9857 4.43554 20.6811L5.60053 19.5212L6.76553 20.6811C7.08083 20.9911 7.59385 20.943 7.87709 20.6436C8.16032 20.3443 8.19238 19.8579 7.87709 19.5425V19.5479Z" fill="#C12814"/>
<path d="M9.22913 11.1929H1.99866C0.887108 11.1982 0 10.3109 0 9.19911V1.99911C0 0.887305 0.887108 0 1.99866 0H9.19706C10.3086 0 11.1957 0.887305 11.1957 1.99911V9.19911C11.1957 10.2788 10.3407 11.1929 9.22378 11.1929H9.22913ZM6.39679 7.9804V6.39822H8C8.46493 6.39822 8.80695 6.01336 8.79626 5.57506C8.78557 5.16882 8.44355 4.8 8 4.8H6.39679V3.19644C6.39679 2.73675 6.00668 2.38931 5.57381 2.4C5.16767 2.41069 4.79893 2.75278 4.79893 3.19644V4.8H3.19572C2.73614 4.8 2.38878 5.1902 2.39947 5.62316C2.41015 6.05612 2.75217 6.39822 3.19572 6.39822H4.79893V8.00178C4.79893 8.46147 5.18904 8.81425 5.62191 8.79822C6.05478 8.78218 6.40214 8.45078 6.40214 7.9804H6.39679Z" fill="#C12814"/>
<path d="M22.0226 23.9951H14.7975C13.6859 23.9951 12.7988 23.1131 12.7988 21.996V14.796C12.7988 13.6842 13.6859 12.7969 14.7975 12.7969H21.9959C23.1074 12.7969 23.9946 13.6842 23.9946 14.796V21.996C23.9946 23.0757 23.1395 23.9897 22.0226 23.9897V23.9951ZM20.8202 17.5969C21.2958 17.5969 21.6058 17.1746 21.5951 16.7737C21.5844 16.3728 21.2477 15.9987 20.7935 15.9987H15.9946C15.5296 15.9987 15.1823 16.3942 15.193 16.8218C15.2036 17.2494 15.5403 17.6022 15.9892 17.6022H20.8149L20.8202 17.5969ZM20.8202 20.7987C21.2958 20.7987 21.6058 20.3764 21.5951 19.9755C21.5844 19.5746 21.2477 19.2004 20.7935 19.2004H15.9946C15.5296 19.2004 15.1823 19.596 15.193 20.0236C15.2036 20.4512 15.5403 20.804 15.9892 20.804H20.8149L20.8202 20.7987Z" fill="#C12814"/>
</svg>
