<svg width="16" height="16" viewBox="0 0 16 16" fill="none" xmlns="http://www.w3.org/2000/svg">
<path d="M6.6081 16H6.32602C6.01125 15.899 5.79288 15.6529 5.79288 15.3047L5.79163 9.31688C5.79163 8.99599 5.68852 8.70984 5.50117 8.45272L0.12118 1.05915C-0.0410247 0.835952 -0.0326421 0.557983 0.100223 0.331519C0.208359 0.147569 0.422117 0 0.694553 0L15.3512 0.000817557C15.6215 0.000817557 15.8361 0.197849 15.9258 0.378529C16.0373 0.602948 16.026 0.857617 15.8722 1.06855L10.5052 8.44332C10.3153 8.70412 10.2084 8.99231 10.2084 9.31525L10.2055 14.2157C10.2055 14.4748 10.0563 14.7148 9.81069 14.8064L6.6081 16Z" fill="#C12814"/>
</svg>
