<svg width="26" height="26" viewBox="0 0 26 26" fill="none" xmlns="http://www.w3.org/2000/svg">
<g clip-path="url(#clip0_104_14)">
<path d="M18.8302 0H7.0369C5.1287 0 3.5 1.54807 3.5 3.4724V22.3986C3.5 24.4036 5.08032 26 7.10141 26H18.943C20.8996 26 22.4154 24.3444 22.4154 22.4147V3.50465C22.4154 1.51582 20.7599 0 18.8302 0ZM20.045 22.4631C20.0127 23.1081 19.5397 23.6295 18.8785 23.6295H7.0369C6.41875 23.6295 5.8866 23.1243 5.8866 22.4631V3.5369C5.8866 2.85962 6.408 2.40273 7.0369 2.37048H18.8785C19.5236 2.37048 20.002 2.8435 20.045 3.50465V22.4631Z" fill="url(#paint0_linear_104_14)"/>
<path d="M17.2009 19.8027H8.71875V22.1732H17.2009V19.8027Z" fill="url(#paint1_linear_104_14)"/>
<path d="M15.733 8.93925C15.5341 8.61674 15.2492 8.36948 14.8729 8.1921C14.4967 8.01471 14.0505 7.92871 13.5345 7.92871H10.0621V12.7503H9.32031V14.0081H10.0621V14.8466H11.7714V14.0081H14.3032V12.7503H11.7714V12.1966H13.5345C14.0505 12.1966 14.4967 12.1106 14.8729 11.9333C15.2492 11.7559 15.5395 11.5086 15.733 11.1861C15.9318 10.8636 16.0286 10.4927 16.0286 10.0681C16.0286 9.64341 15.9318 9.26177 15.733 8.94463V8.93925ZM14.0666 10.6217C13.9108 10.7561 13.6958 10.826 13.4216 10.826H11.766V9.29939H13.4216C13.6958 9.29939 13.9108 9.3639 14.0666 9.50365C14.2225 9.63804 14.2978 9.82617 14.2978 10.0681C14.2978 10.3099 14.2225 10.4927 14.0666 10.6271V10.6217Z" fill="url(#paint2_linear_104_14)"/>
</g>
<defs>
<linearGradient id="paint0_linear_104_14" x1="12.9577" y1="0" x2="12.9577" y2="26" gradientUnits="userSpaceOnUse">
<stop stop-color="#D32300"/>
<stop offset="1" stop-color="#C12814"/>
</linearGradient>
<linearGradient id="paint1_linear_104_14" x1="12.9598" y1="19.8027" x2="12.9598" y2="22.1732" gradientUnits="userSpaceOnUse">
<stop stop-color="#D32300"/>
<stop offset="1" stop-color="#C12814"/>
</linearGradient>
<linearGradient id="paint2_linear_104_14" x1="12.6745" y1="7.92871" x2="12.6745" y2="14.8466" gradientUnits="userSpaceOnUse">
<stop stop-color="#D32300"/>
<stop offset="1" stop-color="#C12814"/>
</linearGradient>
<clipPath id="clip0_104_14">
<rect width="19" height="26" fill="white" transform="translate(3.5)"/>
</clipPath>
</defs>
</svg>
