<svg width="13" height="16" viewBox="0 0 13 16" fill="none" xmlns="http://www.w3.org/2000/svg">
<path d="M6.4927 0C2.90348 0 0 2.69604 0 6.02883C0 7.76296 0.933782 9.33452 1.85297 10.7841C2.97643 12.5862 4.31874 14.266 5.87991 15.7562C6.21549 16.0813 6.77007 16.0813 7.12009 15.7562C8.49158 14.4963 9.70258 13.0737 10.7239 11.5564C11.8182 9.91695 13 8.02024 13 6.02883C12.9854 2.70959 10.0819 0 6.4927 0ZM6.4927 9.52419C4.31874 9.52419 2.55331 7.88489 2.55331 5.86625C2.55331 3.84761 4.31874 2.20831 6.4927 2.20831C8.66667 2.20831 10.4321 3.83406 10.4321 5.86625C10.4321 7.89844 8.66667 9.52419 6.4927 9.52419Z" fill="url(#paint0_linear_52_98859)"/>
<defs>
<linearGradient id="paint0_linear_52_98859" x1="6.5" y1="0" x2="6.5" y2="16" gradientUnits="userSpaceOnUse">
<stop stop-color="#FF2A00"/>
<stop offset="1" stop-color="#991900"/>
</linearGradient>
</defs>
</svg>
