<svg width="20" height="20" viewBox="0 0 20 20" fill="none" xmlns="http://www.w3.org/2000/svg">
<path d="M13.6517 13.2968C14.0625 12.8831 14.5831 12.6974 15.1488 12.8297L19.2405 13.7836C19.581 13.8624 19.9721 14.1692 19.975 14.5153L19.9947 16.73C20.0144 18.6914 18.34 20.1604 16.4039 19.9859C15.0418 19.8621 13.7417 19.6032 12.4472 19.1389C11.043 18.6352 9.72316 17.9767 8.47932 17.1465C5.0236 14.8389 2.24607 11.4479 0.850271 7.51661C0.391571 6.23056 0.138301 4.94452 0.0144804 3.59093C-0.162808 1.65482 1.30897 -0.0167578 3.27041 0.000126813L5.48511 0.0198256C5.81717 0.0226397 6.12673 0.396916 6.20552 0.728981L7.1595 4.78693C7.29458 5.361 7.15388 5.90413 6.73176 6.31499C6.38844 6.64987 6.05356 6.95942 5.7215 7.31962C5.12772 7.96406 5.03204 8.96869 5.52732 9.7088C6.79086 11.6027 8.39771 13.2096 10.2916 14.4731C11.043 14.974 12.0786 14.8868 12.7005 14.2592L13.6545 13.2968H13.6517Z" fill="white"/>
</svg>
