<svg width="30" height="30" viewBox="0 0 30 30" fill="none" xmlns="http://www.w3.org/2000/svg">
<g clip-path="url(#clip0_104_14)">
<path d="M27 14.5234C27 21.1641 21.6267 26.5468 15 26.5468C8.37334 26.5468 3 21.1641 3 14.5234C3 7.8827 8.37334 2.5 15 2.5C21.6267 2.5 27 7.8827 27 14.5234ZM18.8815 13.7237L18.0818 14.5421C17.675 14.9583 17.7685 15.6364 18.1473 16.0105C18.5495 16.408 19.2182 16.4501 19.6345 16.0433L20.3313 15.3605C22.0616 13.6769 22.1177 10.9365 20.4856 9.1968C18.8535 7.45713 16.1037 7.34489 14.3406 9.00039C14.032 9.29033 13.7467 9.58496 13.4567 9.90296C13.0592 10.3285 13.1341 11.0066 13.5409 11.3901C13.9244 11.7502 14.5791 11.825 14.9813 11.4275L15.7576 10.6652C16.6274 9.80943 17.9977 9.7954 18.8488 10.6419C19.6999 11.4883 19.742 12.8398 18.8815 13.7237ZM14.5838 16.4829L16.9688 14.0931C17.3991 13.6629 17.3196 12.9661 16.9174 12.5779C16.5152 12.1898 15.8465 12.1337 15.4302 12.5546L13.0125 14.9864C12.5916 15.4072 12.6991 16.1041 13.0826 16.4735C13.4661 16.8429 14.1489 16.9224 14.5838 16.4875V16.4829ZM15.0047 17.6239L14.191 18.4236C13.3258 19.2701 11.9556 19.2186 11.1278 18.3769C10.3001 17.5351 10.2861 16.1695 11.1278 15.309L11.9135 14.5047C12.3203 14.0885 12.2268 13.4104 11.848 13.0362C11.4692 12.6621 10.8051 12.5966 10.3889 12.9801C10.0662 13.2841 9.76228 13.574 9.46298 13.892C7.82151 15.6691 7.97116 18.433 9.71083 20.0464C11.4505 21.6598 14.1629 21.5943 15.8371 19.8687L16.5152 19.1672C16.9174 18.751 16.8753 18.0776 16.4825 17.68C16.0896 17.2825 15.4302 17.2077 15.0047 17.6286V17.6239Z" fill="url(#paint0_linear_104_14)"/>
</g>
<defs>
<linearGradient id="paint0_linear_104_14" x1="15" y1="2.5" x2="15" y2="26.5468" gradientUnits="userSpaceOnUse">
<stop stop-color="#D32300"/>
<stop offset="1" stop-color="#C12814"/>
</linearGradient>
<clipPath id="clip0_104_14">
<rect width="24" height="25" fill="white" transform="translate(3 2.5)"/>
</clipPath>
</defs>
</svg>
