<svg width="30" height="30" viewBox="0 0 30 30" fill="none" xmlns="http://www.w3.org/2000/svg">
<g clip-path="url(#clip0_104_14)">
<path d="M26.9513 18.6106V20.1559L26.9155 20.3888C26.8438 21.4325 26.6288 22.4359 26.2122 23.3855C25.1237 25.867 22.8035 26.7942 20.2189 26.9599L20.0308 27.0002H18.6736C18.5527 26.9644 18.4317 26.9689 18.2973 26.951L17.3477 26.8345L23.0678 21.101L22.0689 20.1022L16.3399 25.8401C16.0577 23.7662 16.1338 21.5221 17.0073 19.6497C17.5672 18.4672 18.4765 17.5624 19.659 17.007C21.7509 16.0305 24.4071 16.0439 26.6557 16.4963C26.7721 17.0831 26.8617 17.6341 26.9065 18.2209C26.9155 18.3597 26.911 18.4941 26.9468 18.6016L26.9513 18.6106Z" fill="url(#paint0_linear_104_14)"/>
<path d="M11.2826 26.9863H9.93432C5.57151 26.722 3.28708 24.5899 3.0228 20.1375C2.95113 18.9505 3.04968 17.6963 3.30052 16.5048C4.85035 16.1867 6.40913 16.1106 7.97688 16.339C10.1001 16.6481 11.9366 17.5932 12.8996 19.5641C13.8626 21.535 13.903 23.7522 13.6163 25.8441L7.88729 20.1061L6.88842 21.105L12.6174 26.8474L11.6544 26.9549L11.2781 26.9863H11.2826Z" fill="url(#paint1_linear_104_14)"/>
<path d="M15.0275 3C17.8719 4.8589 20.8327 8.11981 19.6367 11.748C18.9738 13.7637 17.3792 15.4793 15.686 16.7693V8.64389H14.2795V16.7648C12.5953 15.4882 11.0096 13.7816 10.3422 11.7839C9.11042 8.13773 12.0757 4.87234 14.9335 3H15.0275Z" fill="url(#paint2_linear_104_14)"/>
</g>
<defs>
<linearGradient id="paint0_linear_104_14" x1="21.5723" y1="16.1992" x2="21.5723" y2="27.0002" gradientUnits="userSpaceOnUse">
<stop stop-color="#D32300"/>
<stop offset="1" stop-color="#C12814"/>
</linearGradient>
<linearGradient id="paint1_linear_104_14" x1="8.38595" y1="16.207" x2="8.38595" y2="26.9863" gradientUnits="userSpaceOnUse">
<stop stop-color="#D32300"/>
<stop offset="1" stop-color="#C12814"/>
</linearGradient>
<linearGradient id="paint2_linear_104_14" x1="14.9824" y1="3" x2="14.9824" y2="16.7693" gradientUnits="userSpaceOnUse">
<stop stop-color="#D32300"/>
<stop offset="1" stop-color="#C12814"/>
</linearGradient>
<clipPath id="clip0_104_14">
<rect width="24" height="24" fill="white" transform="translate(3 3)"/>
</clipPath>
</defs>
</svg>
