<svg width="30" height="30" viewBox="0 0 30 30" fill="none" xmlns="http://www.w3.org/2000/svg">
<g clip-path="url(#clip0_104_14)">
<path d="M22.2093 1C23.2262 1.02133 24.0369 1.80357 24.0369 2.80626V6.06322L19.4785 10.33L19.4074 10.6927L9.6081 14.867V10.3655L5 6.06322V2.85604C5 1.83913 5.79646 1.03556 6.81337 1H11.1797C12.1682 1.00711 12.9717 1.82491 12.9788 2.79915L13.0073 5.15298C13.0073 5.76455 13.5406 6.22678 14.1095 6.22678H14.9345C15.5033 6.22678 16.0296 5.76455 16.0367 5.15298L16.058 2.85604C16.0651 1.86046 16.8474 1.00711 17.8643 1.00711H22.2022L22.2093 1Z" fill="url(#paint0_linear_104_14)"/>
<path d="M9.61551 19.7875L9.6084 16.8719L19.4362 12.6904V15.6061L9.61551 19.7875Z" fill="url(#paint1_linear_104_14)"/>
<path d="M9.78618 24.6382C9.70796 24.5671 9.65107 24.5031 9.6084 24.4391V21.7937L19.4433 17.6123V20.5279L9.79329 24.6382H9.78618Z" fill="url(#paint2_linear_104_14)"/>
<path d="M14.7783 28.8904C14.6503 29.0042 14.4441 29.0397 14.3374 28.9473L11.2227 26.0388L19.4362 22.54L19.422 24.5454L14.7712 28.8975L14.7783 28.8904Z" fill="url(#paint3_linear_104_14)"/>
</g>
<defs>
<linearGradient id="paint0_linear_104_14" x1="14.5184" y1="1" x2="14.5184" y2="14.867" gradientUnits="userSpaceOnUse">
<stop stop-color="#D32300"/>
<stop offset="1" stop-color="#C12814"/>
</linearGradient>
<linearGradient id="paint1_linear_104_14" x1="14.5223" y1="12.6904" x2="14.5223" y2="19.7875" gradientUnits="userSpaceOnUse">
<stop stop-color="#D32300"/>
<stop offset="1" stop-color="#C12814"/>
</linearGradient>
<linearGradient id="paint2_linear_104_14" x1="14.5258" y1="17.6123" x2="14.5258" y2="24.6382" gradientUnits="userSpaceOnUse">
<stop stop-color="#D32300"/>
<stop offset="1" stop-color="#C12814"/>
</linearGradient>
<linearGradient id="paint3_linear_104_14" x1="15.3294" y1="22.54" x2="15.3294" y2="29" gradientUnits="userSpaceOnUse">
<stop stop-color="#D32300"/>
<stop offset="1" stop-color="#C12814"/>
</linearGradient>
<clipPath id="clip0_104_14">
<rect width="20" height="28" fill="white" transform="translate(5 1)"/>
</clipPath>
</defs>
</svg>
