<svg width="30" height="30" viewBox="0 0 30 30" fill="none" xmlns="http://www.w3.org/2000/svg">
<g clip-path="url(#clip0_104_14)">
<path d="M14.991 5C10.5735 5 7 8.37005 7 12.536C7 14.7037 8.14927 16.6682 9.28058 18.4802C10.6633 20.7327 12.3154 22.8325 14.2368 24.6953C14.6498 25.1016 15.3324 25.1016 15.7632 24.6953C17.4512 23.1204 18.9416 21.3422 20.1987 19.4455C21.5455 17.3962 23 15.0253 23 12.536C22.982 8.38698 19.4085 5 14.991 5ZM14.991 16.9052C12.3154 16.9052 10.1425 14.8561 10.1425 12.3328C10.1425 9.80951 12.3154 7.76039 14.991 7.76039C17.6667 7.76039 19.8395 9.79258 19.8395 12.3328C19.8395 14.873 17.6667 16.9052 14.991 16.9052Z" fill="#62A8B1"/>
</g>
<defs>
<clipPath id="clip0_104_14">
<rect width="16" height="20" fill="white" transform="translate(7 5)"/>
</clipPath>
</defs>
</svg>
