<svg width="21" height="26" viewBox="0 0 21 26" fill="none" xmlns="http://www.w3.org/2000/svg">
<path d="M17.0428 25H0.558382C0.19422 24.8762 0 24.604 0 24.1584V4.05941C0.0242775 3.63861 0.364162 3.36634 0.752601 3.36634H2.40347V0.668317C2.40347 0.321782 2.74335 0 3.10751 0H20.2717C20.7087 0 21 0.371287 21 0.792079V21.7822C21 22.203 20.7087 22.5743 20.296 22.5743H17.6497V24.2822C17.6497 24.6535 17.4069 24.901 17.0671 25.0247L17.0428 25ZM17.6497 21.0891H19.5676V1.4604H3.83584V3.36634H16.8728C17.2855 3.36634 17.6254 3.66337 17.6254 4.10891V21.0891H17.6497ZM1.43237 4.82673V23.5396H16.1931V4.82673H1.43237Z" fill="#C12814"/>
<path d="M9.3954 9.35647C9.10407 9.62874 8.66708 9.55448 8.44858 9.35647C8.23008 9.15845 8.08442 8.6634 8.35147 8.39112L10.2208 6.48518C10.5122 6.18815 10.9734 6.26241 11.2162 6.53468C11.4833 6.80696 11.4833 7.27726 11.1919 7.57429L9.3954 9.38122V9.35647Z" fill="#C12814"/>
<path d="M12.7699 9.35647C12.4786 9.62874 12.0416 9.55448 11.8231 9.35647C11.6046 9.15845 11.4589 8.6634 11.726 8.39112L13.5953 6.48518C13.8867 6.18815 14.3479 6.26241 14.5907 6.53468C14.8578 6.80696 14.8578 7.27726 14.5664 7.57429L12.7699 9.38122V9.35647Z" fill="#C12814"/>
</svg>
