<svg width="23" height="24" viewBox="0 0 23 24" fill="none" xmlns="http://www.w3.org/2000/svg">
<path d="M18.7839 0L18.953 0.21229L18.9574 1.6883C18.9599 2.54309 18.3938 3.25198 17.534 3.40415V5.20454C17.534 5.38928 17.4332 5.52329 17.2265 5.52517H5.29383C5.1379 5.51202 5.02017 5.38614 5.02017 5.24337V3.40415C4.18416 3.24258 3.59614 2.54685 3.59864 1.6883L3.60302 0.20227L3.8078 0L18.7839 0Z" fill="url(#paint0_linear_51_141424)"/>
<path d="M22.2672 15.8043C22.4326 15.8043 22.5515 15.9345 22.5515 16.0829V23.7128C22.5515 23.8932 22.42 23.9996 22.2403 23.9996H0.281174C0.106458 23.9996 0 23.8625 0 23.7047V16.0911C0.0162818 15.9458 0.0964384 15.8494 0.231076 15.8024L4.97847 15.8061L8.35256 20.8097L14.2021 20.8078L17.4754 15.9502C17.5562 15.8656 17.6426 15.8199 17.7553 15.8018L22.2666 15.8036L22.2672 15.8043Z" fill="url(#paint1_linear_51_141424)"/>
<path d="M20.0635 9.89819C20.2001 10.004 20.2289 10.1725 20.128 10.3096L13.187 18.9327L9.38769 18.9409L2.45227 10.3441C2.312 10.1775 2.36648 10.0047 2.51677 9.8888L3.81306 8.88684C3.9383 8.78978 4.11302 8.82735 4.21446 8.95448L10.2813 16.5099L12.294 16.5011L18.3734 8.92817C18.4761 8.8261 18.6445 8.7998 18.7541 8.88497L20.0635 9.89882V9.89819Z" fill="url(#paint2_linear_51_141424)"/>
<path d="M11.7762 13.0452C11.4511 13.1209 11.1243 13.1165 10.8086 13.0445L9.12973 10.8459L9.12598 6.00391H13.44L13.4394 10.8647L11.7762 13.0452Z" fill="url(#paint3_linear_51_141424)"/>
<defs>
<linearGradient id="paint0_linear_51_141424" x1="11.278" y1="0" x2="11.278" y2="5.52517" gradientUnits="userSpaceOnUse">
<stop stop-color="#D32300"/>
<stop offset="1" stop-color="#C12814"/>
</linearGradient>
<linearGradient id="paint1_linear_51_141424" x1="11.2758" y1="15.8018" x2="11.2758" y2="23.9996" gradientUnits="userSpaceOnUse">
<stop stop-color="#D32300"/>
<stop offset="1" stop-color="#C12814"/>
</linearGradient>
<linearGradient id="paint2_linear_51_141424" x1="11.2797" y1="8.83203" x2="11.2797" y2="18.9409" gradientUnits="userSpaceOnUse">
<stop stop-color="#D32300"/>
<stop offset="1" stop-color="#C12814"/>
</linearGradient>
<linearGradient id="paint3_linear_51_141424" x1="11.283" y1="6.00391" x2="11.283" y2="13.1003" gradientUnits="userSpaceOnUse">
<stop stop-color="#D32300"/>
<stop offset="1" stop-color="#C12814"/>
</linearGradient>
</defs>
</svg>
