<svg width="35" height="34" viewBox="0 0 35 34" fill="none" xmlns="http://www.w3.org/2000/svg">
<path d="M33.2929 13.3713C31.8616 11.498 32.3878 10.1158 32.1843 7.90567C32.0861 6.83218 31.4827 5.99023 30.4934 5.55522C28.4867 4.67118 26.9502 4.75537 25.6171 2.83993C25.161 2.18742 24.698 1.56298 24.1717 0.97361C23.4421 0.152708 22.4317 -0.17004 21.3512 0.0965782C19.2183 0.622797 18.0045 1.4858 15.8014 0.728041C15.0717 0.475456 14.335 0.257952 13.5912 0.0825456C11.5635 -0.387543 10.5041 1.23321 9.3885 2.83993C8.03436 4.79747 6.46272 4.66416 4.46309 5.58329C3.50888 6.0183 2.92653 6.86726 2.8283 7.91269C2.63185 10.1018 3.13702 11.505 1.7478 13.3292C0.541001 14.9149 -0.665794 16.3883 0.428742 18.2476C0.814636 18.9001 1.25666 19.5176 1.71973 20.121C3.15105 21.9803 2.63185 23.3625 2.8283 25.5796C2.91951 26.625 3.50186 27.467 4.46309 27.909C6.49079 28.8352 8.02735 28.6808 9.42358 30.6945C10.5251 32.2872 11.5846 33.8728 13.5912 33.4098C15.9908 32.8485 16.7205 32.0276 19.2674 32.7783L21.4144 33.4098C23.3298 33.9711 24.5647 32.1819 25.582 30.7015C26.9361 28.7299 28.5148 28.8211 30.5425 27.916C31.4827 27.4951 32.065 26.6882 32.1703 25.6638C32.4299 23.2362 31.7844 22.3171 33.2929 20.135L34.5488 18.3108C35.6644 16.4515 34.5067 14.971 33.2929 13.3783V13.3713ZM20.7268 18.6546L22.7194 24.7868L17.4993 20.998L12.2792 24.7868L14.2718 18.6546L9.05172 14.8658H15.4997L17.4923 8.73359L19.4849 14.8658H25.9328L20.7127 18.6546H20.7268Z" fill="url(#paint0_linear_51_141467)"/>
<defs>
<linearGradient id="paint0_linear_51_141467" x1="17.5" y1="0" x2="17.5" y2="33.5153" gradientUnits="userSpaceOnUse">
<stop stop-color="#D32300"/>
<stop offset="1" stop-color="#C12814"/>
</linearGradient>
</defs>
</svg>
