<svg width="30" height="30" viewBox="0 0 30 30" fill="none" xmlns="http://www.w3.org/2000/svg">
<g clip-path="url(#clip0_104_14)">
<path d="M15.9574 25.7917C15.9574 26.4979 15.3836 27.0055 14.7381 27C14.0926 26.9944 13.5409 26.4482 13.5353 25.7586V24.0372L12.4374 25.0358C11.9353 25.4938 11.2071 25.5324 10.7215 25.0634C10.236 24.5944 10.214 23.8055 10.7215 23.3144L13.5409 20.7655V17.1076L10.374 18.9393L9.57948 22.6358C9.43603 23.2979 8.79052 23.6786 8.16155 23.5517C7.53259 23.4248 7.08018 22.8289 7.21259 22.1834L7.53811 20.5779L6.05397 21.4331C5.45811 21.7807 4.7188 21.582 4.38777 21.0138C4.02363 20.3958 4.24984 19.6676 4.86777 19.3089L6.32432 18.4703L4.93397 18.0179C4.26639 17.7972 3.85811 17.1848 4.0457 16.5007C4.22225 15.8607 4.90087 15.4634 5.57397 15.6731L9.15466 16.8372L12.3271 15.0055L9.16569 13.1738L5.57397 14.3324C4.90087 14.5476 4.22225 14.1338 4.0457 13.5048C3.85811 12.8152 4.26639 12.2027 4.93397 11.982L6.32432 11.5296L4.83466 10.669C4.23329 10.3214 4.04018 9.58206 4.38777 8.9862C4.73535 8.39034 5.45811 8.22482 6.05397 8.56689L7.53811 9.42757L7.22363 7.95447C7.08018 7.27034 7.45535 6.61379 8.11742 6.4593C8.77948 6.30482 9.43603 6.7131 9.585 7.40827L10.3629 11.0662L13.5298 12.8979V9.23999L10.7712 6.74068C10.236 6.27724 10.2084 5.49379 10.6664 4.99172C11.1243 4.48965 11.8912 4.4731 12.4043 4.94207L13.5298 5.96275L13.5409 4.19724C13.5464 3.51862 14.1091 3 14.7381 3C15.4277 3 15.9629 3.53517 15.9629 4.23586V5.95724L17.1657 4.88689C17.6677 4.44 18.4457 4.53379 18.8595 5.01931C19.2733 5.50482 19.2457 6.27172 18.7381 6.72413L15.9629 9.22895V12.8924L19.1298 11.0662L19.9298 7.34206C20.0677 6.69103 20.7298 6.33241 21.3202 6.44275C21.9657 6.55861 22.4236 7.18206 22.2912 7.84413L21.9712 9.42206L23.4001 8.58896C24.0015 8.23585 24.7408 8.37378 25.105 8.95861C25.4691 9.54344 25.2705 10.3158 24.6526 10.6745L23.1905 11.5241L24.6636 12.0152C25.3091 12.2303 25.6457 12.8924 25.4526 13.5214C25.2595 14.1503 24.6029 14.52 23.9464 14.3324L20.3436 13.1627L17.1822 14.9945L20.3436 16.8317L23.8636 15.6841C24.5312 15.4689 25.2098 15.7779 25.436 16.4345C25.6622 17.091 25.3146 17.7586 24.6581 17.9793L23.1905 18.4703L24.6526 19.32C25.2595 19.6731 25.4691 20.4069 25.127 21.0027C24.785 21.5986 24.0401 21.7751 23.4388 21.422L21.9712 20.5724L22.2857 22.1062C22.4236 22.7682 22.0153 23.4027 21.3588 23.5462C20.7629 23.6786 20.0733 23.3144 19.9298 22.6524L19.1353 18.9338L15.9684 17.102V20.7655L18.7933 23.32C19.2622 23.7944 19.2677 24.5227 18.8374 25.0027C18.4071 25.4827 17.6402 25.5379 17.1381 25.091L15.9684 24.0372V25.7917H15.9574Z" fill="url(#paint0_linear_104_14)"/>
</g>
<defs>
<linearGradient id="paint0_linear_104_14" x1="14.7534" y1="3" x2="14.7534" y2="27" gradientUnits="userSpaceOnUse">
<stop stop-color="#D32300"/>
<stop offset="1" stop-color="#C12814"/>
</linearGradient>
<clipPath id="clip0_104_14">
<rect width="22" height="24" fill="white" transform="translate(4 3)"/>
</clipPath>
</defs>
</svg>
