<svg width="16" height="16" viewBox="0 0 16 16" fill="none" xmlns="http://www.w3.org/2000/svg">
<path d="M8.5 0L8.645 0.0262495C12.5381 0.335306 15.6641 3.46212 15.9734 7.35517L16 7.49985V8.49983L15.9734 8.64452C15.6628 12.5379 12.5387 15.6641 8.64469 15.9734L8.5 16H7.5L7.35531 15.9734C3.46219 15.6631 0.33625 12.5373 0.02625 8.64483L0 8.49983L0.0115625 7.50392C0.285313 3.46399 3.46406 0.285932 7.505 0.0118748L8.5 0ZM10.9019 12.1698C11.1675 12.4348 11.5875 12.3576 11.8069 12.1332C12.0391 11.8957 12.0866 11.482 11.8309 11.226L8.66531 8.05641L8.66844 4.06617C8.66875 3.67243 8.43531 3.36337 8.04219 3.33587C7.69875 3.31181 7.33625 3.57649 7.33594 3.97055L7.33344 8.3089C7.33344 8.49796 7.38969 8.66296 7.5225 8.79577L10.9019 12.1698Z" fill="white"/>
</svg>
