<svg width="35" height="35" viewBox="0 0 35 35" fill="none" xmlns="http://www.w3.org/2000/svg">
<path d="M26.5247 35C20.6949 35 14.858 35 9.02819 35C8.88122 34.979 7.40452 34.951 6.45271 34.762C3.31034 34.3211 0.797841 31.8716 0.265947 28.7433C0.132974 27.9664 0.0839832 27.1756 0 26.3847C0 20.3869 0 14.3961 0 8.39832C0.0489902 7.92241 0.104979 7.45351 0.132973 6.9776C0.384923 3.29634 3.47131 0.461908 6.66267 0.174965C7.21556 0.125975 7.77544 0.0629874 8.32833 0C14.4381 0 20.5549 0 26.6647 0C27.1266 0.0489902 27.5885 0.104979 28.0574 0.139972C31.7596 0.412917 34.4051 3.4783 34.769 6.31974C34.86 7.03359 34.923 7.75445 34.993 8.4753C34.993 14.4941 34.993 20.5129 34.993 26.5317C34.944 27.0426 34.888 27.5465 34.853 28.0574C34.5871 31.7037 31.5287 34.5311 28.3303 34.818C27.7284 34.874 27.1266 34.944 26.5247 35ZM4.22715 17.9024C4.26215 20.17 4.71006 22.3745 5.31194 24.5511C5.71086 26.0138 6.09578 27.4835 6.12377 29.0162C6.14477 30.101 6.61368 30.5699 7.71246 30.5419C9.21016 30.5069 10.4909 29.898 11.5687 28.8762C11.8206 28.6383 11.9676 28.6313 12.2406 28.8272C13.2204 29.5341 14.2701 30.122 15.4879 30.3109C18.1054 30.7169 20.6529 30.4509 23.0814 29.3381C28.1624 27.0286 31.1928 21.8636 30.7378 16.2927C30.4369 12.6325 28.9112 9.57408 26.1188 7.18056C20.8138 2.63847 12.8354 3.31734 8.09038 8.03439C5.34693 10.7499 4.12217 14.0742 4.22715 17.9024Z" fill="white"/>
<path d="M10.729 18.8055C10.757 17.2308 10.981 15.7051 11.6808 14.2844C13.6474 10.2742 18.7354 9.30139 22.0527 12.3038C24.1803 14.2284 24.8942 17.1468 23.8584 19.7363C22.8226 22.3258 20.2051 24.0684 17.4057 24.0124C16.3069 23.9915 15.2921 23.6485 14.3613 23.0886C14.0743 22.9207 13.8854 22.9137 13.6334 23.1516C13.3255 23.4456 12.9686 23.7045 12.6046 23.9285C12.1777 24.1944 11.9398 24.1244 11.6878 23.6765C11.2329 22.8577 11.0579 21.9479 10.932 21.031C10.834 20.2962 10.792 19.5473 10.729 18.8055Z" fill="white"/>
</svg>
