<svg width="26" height="19" viewBox="0 0 26 19" fill="none" xmlns="http://www.w3.org/2000/svg">
<path d="M22.4954 18.9091H3.58349C1.65756 18.9091 0 17.3938 0 15.4366V3.59873C0 1.57839 1.59441 0 3.59927 0H22.527C24.4529 0 26 1.62574 26 3.53559V15.3262C26 17.2518 24.4845 18.9091 22.4954 18.9091ZM23.6321 4.73517V3.53559C23.6005 2.90423 23.1427 2.38337 22.4639 2.38337H3.53613C2.8731 2.38337 2.36794 2.92002 2.36794 3.53559V4.73517H23.6321ZM22.4954 16.5415C23.1585 16.4942 23.6321 16.0206 23.6321 15.3735V7.08696H2.36794V15.3735C2.36794 16.0364 2.88889 16.5099 3.53613 16.5415H22.4954Z" fill="url(#paint0_linear_52_123026)"/>
<path d="M9.45447 13.0059H4.73438V15.3734H9.45447V13.0059Z" fill="url(#paint1_linear_52_123026)"/>
<defs>
<linearGradient id="paint0_linear_52_123026" x1="13" y1="0" x2="13" y2="18.9091" gradientUnits="userSpaceOnUse">
<stop stop-color="#D32300"/>
<stop offset="1" stop-color="#C12814"/>
</linearGradient>
<linearGradient id="paint1_linear_52_123026" x1="7.09442" y1="13.0059" x2="7.09442" y2="15.3734" gradientUnits="userSpaceOnUse">
<stop stop-color="#D32300"/>
<stop offset="1" stop-color="#C12814"/>
</linearGradient>
</defs>
</svg>
