<svg width="35" height="35" viewBox="0 0 35 35" fill="none" xmlns="http://www.w3.org/2000/svg">
<path d="M17.5 35C27.165 35 35 27.165 35 17.5C35 7.83502 27.165 0 17.5 0C7.83502 0 0 7.83502 0 17.5C0 27.165 7.83502 35 17.5 35Z" fill="white"/>
<path d="M8.00797 17.1204L24.8809 10.6148C25.664 10.3319 26.348 10.8058 26.0942 11.99L26.0957 11.9885L23.2228 25.5233C23.0098 26.4829 22.4396 26.7162 21.6419 26.2642L17.2669 23.0398L15.1567 25.0727C14.9234 25.306 14.7265 25.5029 14.2744 25.5029L14.5851 21.0506L22.6934 13.7254C23.0463 13.4148 22.6146 13.2398 22.1494 13.5489L12.1292 19.8577L7.80964 18.5102C6.87193 18.2127 6.85151 17.5725 8.00797 17.1204Z" fill="#C12814"/>
</svg>
