<svg width="21" height="26" viewBox="0 0 21 26" fill="none" xmlns="http://www.w3.org/2000/svg">
<path d="M20.6848 7.44722C20.6848 7.20887 20.6052 6.99924 20.454 6.84102L14.1184 0.197531L13.866 0H2.77148L2.75636 0.00403124C1.15898 0.405644 0 1.81557 0 3.35702L0.00251953 22.5926C0.00251953 23.4366 0.333081 24.2474 0.932729 24.8758C1.51071 25.4815 2.29579 25.8801 3.14235 25.9985L17.486 26L17.4936 25.999C19.3429 25.7732 20.6853 24.2777 20.6853 22.4424V7.44722H20.6848ZM12.8289 1.44873L12.8279 5.26379C12.843 6.85009 14.0998 8.1033 15.6901 8.11691H19.1852L19.1796 22.4933C19.1796 23.6009 18.2656 24.5019 17.1424 24.5019L3.49861 24.4994C2.39305 24.4994 1.49358 23.5989 1.49358 22.4928V3.46032C1.49358 2.35223 2.41522 1.45074 3.548 1.45024L12.8294 1.44873H12.8289ZM15.7113 6.62031C15.3081 6.61124 14.9453 6.45352 14.6888 6.17486C14.4313 5.89519 14.3034 5.52079 14.328 5.11968L14.3406 2.61124L18.1522 6.61174L15.7113 6.62031Z" fill="#C12814"/>
<path d="M6.69476 13.9422H6.69728C6.90388 13.9417 7.09032 13.8631 7.22285 13.721L9.58214 11.1939L9.58718 17.6459C9.58718 18.038 9.87843 18.367 10.2634 18.4114C10.2856 18.4139 10.3083 18.4154 10.3314 18.4154C10.5123 18.4154 10.7114 18.3388 10.856 18.2098C11.0006 18.0808 11.0772 17.916 11.0777 17.7326L11.0913 11.1959L13.3826 13.6505C13.6587 13.9881 14.1143 14.0425 14.4438 13.7764C14.6056 13.6459 14.7109 13.4423 14.7255 13.2317C14.7396 13.0347 14.6746 12.8487 14.5436 12.7082L10.8565 8.75199C10.7235 8.60888 10.5385 8.53027 10.336 8.53027C10.1294 8.53027 9.93235 8.61493 9.79478 8.76207L6.17725 12.6376C5.86886 12.9677 5.85676 13.4131 6.14802 13.721C6.27954 13.8601 6.48362 13.9427 6.69526 13.9427L6.69476 13.9422Z" fill="#C12814"/>
<path d="M5.17537 21.7002H15.4903C15.9282 21.7002 16.2094 21.3177 16.219 20.963C16.224 20.7775 16.1328 20.5614 15.9877 20.4122C15.8587 20.2797 15.6954 20.2071 15.5271 20.2071L5.21468 20.2041C5.01463 20.2041 4.82717 20.2817 4.68709 20.4233C4.54448 20.5669 4.46335 20.7639 4.46486 20.964C4.46738 21.3117 4.77174 21.7002 5.17487 21.7002H5.17537Z" fill="#C12814"/>
</svg>
