<svg width="30" height="30" viewBox="0 0 30 30" fill="none" xmlns="http://www.w3.org/2000/svg">
<g clip-path="url(#clip0_104_14)">
<path d="M18.6517 18.2968C19.0625 17.8831 19.5831 17.6974 20.1488 17.8297L24.2405 18.7836C24.581 18.8624 24.9721 19.1692 24.975 19.5153L24.9947 21.73C25.0144 23.6914 23.34 25.1604 21.4039 24.9859C20.0418 24.8621 18.7417 24.6032 17.4472 24.1389C16.043 23.6352 14.7232 22.9767 13.4793 22.1465C10.0236 19.8389 7.24607 16.4479 5.85027 12.5166C5.39157 11.2306 5.1383 9.94452 5.01448 8.59093C4.83719 6.65482 6.30897 4.98324 8.2704 5.00013L10.4851 5.01983C10.8172 5.02264 11.1267 5.39692 11.2055 5.72898L12.1595 9.78693C12.2946 10.361 12.1539 10.9041 11.7318 11.315C11.3884 11.6499 11.0536 11.9594 10.7215 12.3196C10.1277 12.9641 10.032 13.9687 10.5273 14.7088C11.7909 16.6027 13.3977 18.2096 15.2916 19.4731C16.043 19.974 17.0786 19.8868 17.7005 19.2592L18.6545 18.2968H18.6517Z" fill="#62A8B1"/>
</g>
<defs>
<clipPath id="clip0_104_14">
<rect width="20" height="20" fill="white" transform="translate(5 5)"/>
</clipPath>
</defs>
</svg>
