<svg width="30" height="30" viewBox="0 0 30 30" fill="none" xmlns="http://www.w3.org/2000/svg">
<g clip-path="url(#clip0_104_14)">
<path d="M15.625 5L15.8063 5.03281C20.6727 5.41913 24.5801 9.32765 24.9668 14.194L25 14.3748V15.6248L24.9668 15.8056C24.5785 20.6723 20.6734 24.5801 15.8059 24.9668L15.625 25H14.375L14.1941 24.9668C9.32773 24.5789 5.42031 20.6716 5.03281 15.806L5 15.6248L5.01445 14.3799C5.35664 9.32999 9.33008 5.35741 14.3813 5.01484L15.625 5ZM18.6273 20.2122C18.9594 20.5434 19.4844 20.447 19.7586 20.1665C20.0488 19.8696 20.1082 19.3525 19.7887 19.0325L15.8316 15.0705L15.8355 10.0827C15.8359 9.59054 15.5441 9.20421 15.0527 9.16984C14.6234 9.13976 14.1703 9.47062 14.1699 9.96318L14.1668 15.3861C14.1668 15.6224 14.2371 15.8287 14.4031 15.9947L18.6273 20.2122Z" fill="#62A8B1"/>
</g>
<defs>
<clipPath id="clip0_104_14">
<rect width="20" height="20" fill="white" transform="translate(5 5)"/>
</clipPath>
</defs>
</svg>
