<svg width="80" height="67" viewBox="0 0 80 67" fill="none" xmlns="http://www.w3.org/2000/svg">
<path d="M20.1764 37.9466C19.7754 36.3424 19.5403 34.683 19.5403 32.9544C19.5403 31.2257 19.7615 29.6769 20.1349 28.1143H0L2.83493 33.0235L0 37.9327H20.1764V37.9466Z" fill="url(#paint0_linear_51_165649)"/>
<path d="M79.9997 28.1143H59.8647C60.2381 29.6631 60.4594 31.2811 60.4594 32.9544C60.4594 34.6276 60.2243 36.3424 59.8232 37.9466H79.9997L77.1647 33.0373L79.9997 28.1281V28.1143Z" fill="url(#paint1_linear_51_165649)"/>
<path d="M30.9353 2.76577C31.1566 2.76577 31.4055 2.79343 31.6682 2.86257C32.9128 3.15298 34.2543 3.54019 35.7478 4.06568C37.186 4.56352 38.5551 4.79861 39.9241 4.79861C42.0261 4.79861 43.8377 4.2178 45.594 3.66465C46.4375 3.4019 47.2949 3.12532 48.2353 2.89023C48.4981 2.82109 48.7608 2.79343 49.0236 2.79343C49.798 2.79343 50.4894 3.12532 51.0702 3.77528C51.9 4.71564 52.7159 5.76663 53.7254 7.20483C56.1455 10.6759 58.9251 11.5748 61.6217 12.4598C62.5483 12.764 63.5024 13.0821 64.4981 13.5108C65.5215 13.9533 66.0885 14.7554 66.1853 15.8617C66.2821 16.9127 66.2821 17.8945 66.2959 18.8487C66.2959 20.1486 66.2959 21.4624 66.5586 22.8314H60.875C57.0028 14.8384 49.0097 9.76317 40.0071 9.76317C31.0045 9.76317 23.0113 14.8245 19.1392 22.8314H13.4832C13.7321 21.4624 13.7321 20.1486 13.746 18.8487C13.746 17.9084 13.746 16.9265 13.8428 15.8894C13.9396 14.8107 14.4927 13.9948 15.4607 13.5661C16.4841 13.0959 17.4936 12.7779 18.4616 12.4598C21.1306 11.6024 23.8826 10.7035 26.3026 7.21866L26.4824 6.96974C28.2663 4.38375 29.4694 2.80726 30.9491 2.82109M30.9353 0C27.7961 0 25.9431 2.80726 24.0208 5.60069C21.3519 9.45894 18.2542 9.19619 14.3129 11.0078C12.4322 11.8652 11.2844 13.5384 11.0908 15.5989C10.7312 19.6231 11.561 22.3059 9.45898 25.5696H20.9508C23.9102 17.936 31.3225 12.5013 40.0071 12.5013C48.6917 12.5013 56.104 17.9222 59.0634 25.5696H70.5829C68.4532 22.2645 69.3106 19.637 68.9372 15.5851C68.7436 13.4693 67.5543 11.8098 65.6044 10.9525C61.6494 9.21002 58.6208 9.37596 55.9933 5.60069C55.0945 4.3146 54.1817 3.08383 53.1446 1.92221C52.0383 0.663785 50.6001 0 49.0236 0C48.5534 0 48.0694 0.0553154 47.5853 0.179775C44.5568 0.926533 42.4686 2.01901 39.9241 2.01901C38.9284 2.01901 37.8636 1.85307 36.6467 1.4382C35.2085 0.940362 33.7564 0.511668 32.2906 0.165946C31.8065 0.0553154 31.364 0 30.9353 0Z" fill="url(#paint2_linear_51_165649)"/>
<path d="M66.5318 43.257C66.2829 44.5431 66.2829 45.7323 66.2967 46.9493C66.2967 47.9588 66.2967 48.996 66.1722 50.2544C66.0616 51.3054 65.5223 52.0383 64.5819 52.467C63.5724 52.9233 62.5906 53.2414 61.6364 53.5595C58.9121 54.4584 56.1048 55.3849 53.6571 58.9251C52.3295 60.8611 50.67 63.2812 49.1073 63.2812C48.9137 63.2812 48.7063 63.2535 48.4989 63.1844L44.2672 61.9398C42.6631 61.4696 41.2387 61.2345 39.8973 61.2345C37.8921 61.2345 36.3432 61.7323 34.7114 62.2717C33.7987 62.5621 32.8445 62.8801 31.6691 63.1429C31.4063 63.1982 31.1574 63.2397 30.9361 63.2397C29.4564 63.2397 28.2671 61.677 26.4832 59.091L26.3588 58.9112C23.8834 55.3434 21.1176 54.4445 18.4486 53.5733C17.4806 53.2552 16.4849 52.9372 15.4616 52.467C14.4797 52.0245 13.9404 51.2362 13.8436 50.1437C13.7468 49.0928 13.7468 48.1109 13.7329 47.1705C13.7329 45.8983 13.7329 44.5984 13.484 43.2432H19.2092C23.109 51.1394 31.0744 56.1455 40.0079 56.1455C48.9414 56.1455 56.9069 51.1394 60.8066 43.2432H66.5456M70.5837 40.4912H58.995C55.9942 48.0556 48.6233 53.3935 39.9941 53.3935C31.3648 53.3935 23.994 48.0418 20.9931 40.4912H9.47363C11.548 43.7548 10.7182 46.3823 11.0778 50.4065C11.2714 52.467 12.4054 54.1265 14.2999 54.9977C18.2965 56.8231 21.325 56.5189 24.077 60.4877C25.9854 63.2397 27.8246 66.0054 30.9361 66.0054C31.3648 66.0054 31.8212 65.9501 32.2914 65.8395C35.6656 65.0513 37.3666 64.0003 39.8973 64.0003C40.9068 64.0003 42.0546 64.1662 43.479 64.5949L47.7106 65.8395C48.1946 65.9778 48.6648 66.0469 49.1073 66.0469C52.1082 66.0469 54.1826 63.0322 55.925 60.5016C58.594 56.6157 61.7055 56.7954 65.7021 55.0115C67.5551 54.1818 68.7029 52.5915 68.9104 50.5724C69.3806 46.1057 68.3157 44.2388 70.5837 40.505V40.4912Z" fill="url(#paint3_linear_51_165649)"/>
<path d="M39.9931 16.9541C33.8254 16.9541 28.4874 20.4528 25.8184 25.5556C25.3897 26.3716 25.0302 27.2151 24.7536 28.114C24.2696 29.6352 24.0068 31.267 24.0068 32.9541C24.0068 34.6412 24.2972 36.3698 24.8089 37.9463C25.0993 38.8314 25.4589 39.6887 25.9014 40.5046C28.598 45.5383 33.8945 48.9541 40.0069 48.9541C46.1193 48.9541 51.4158 45.5383 54.1124 40.5046C54.5411 39.6887 54.9145 38.8314 55.2049 37.9463C55.7166 36.3698 56.007 34.6965 56.007 32.9541C56.007 31.2117 55.7442 29.649 55.2602 28.114C54.9836 27.2289 54.6103 26.3716 54.1954 25.5556C51.5264 20.439 46.1884 16.9541 40.0207 16.9541H39.9931ZM50.5446 28.4735L41.0856 37.9325L38.5272 40.4908L38.4442 40.5738L38.3613 40.4908L35.8029 37.9325L31.751 33.8806L33.7009 31.9308L38.4304 36.6602L46.9767 28.114L48.567 26.5237L50.1573 28.114L50.5169 28.4735H50.5446Z" fill="url(#paint4_linear_51_165649)"/>
<defs>
<linearGradient id="paint0_linear_51_165649" x1="10.0882" y1="28.1143" x2="10.0882" y2="37.9466" gradientUnits="userSpaceOnUse">
<stop stop-color="#D32300"/>
<stop offset="1" stop-color="#C12814"/>
</linearGradient>
<linearGradient id="paint1_linear_51_165649" x1="69.9114" y1="28.1143" x2="69.9114" y2="37.9466" gradientUnits="userSpaceOnUse">
<stop stop-color="#D32300"/>
<stop offset="1" stop-color="#C12814"/>
</linearGradient>
<linearGradient id="paint2_linear_51_165649" x1="40.0209" y1="0" x2="40.0209" y2="25.5696" gradientUnits="userSpaceOnUse">
<stop stop-color="#D32300"/>
<stop offset="1" stop-color="#C12814"/>
</linearGradient>
<linearGradient id="paint3_linear_51_165649" x1="40.0287" y1="40.4912" x2="40.0287" y2="66.0469" gradientUnits="userSpaceOnUse">
<stop stop-color="#D32300"/>
<stop offset="1" stop-color="#C12814"/>
</linearGradient>
<linearGradient id="paint4_linear_51_165649" x1="40.0069" y1="16.9541" x2="40.0069" y2="48.9541" gradientUnits="userSpaceOnUse">
<stop stop-color="#D32300"/>
<stop offset="1" stop-color="#C12814"/>
</linearGradient>
</defs>
</svg>
