<svg width="20" height="28" viewBox="0 0 20 28" fill="none" xmlns="http://www.w3.org/2000/svg">
<path d="M15.4612 0L14.1298 1.50286C12.5126 3.30286 12.7126 5.49143 14.0726 7.41143C14.4726 7.98286 14.9069 8.49143 15.364 9.01714C15.9926 9.74286 16.5755 10.4514 17.1526 11.2171C18.8155 13.4171 19.6212 16.0514 19.4555 18.8C19.164 23.6 15.3983 27.5314 10.5926 27.9486L10.2726 28L9.17547 27.9886L8.82119 27.9486C2.83262 27.3714 -1.2131 21.5371 0.329758 15.72C0.512616 15.0229 0.786901 14.3314 1.11833 13.6457L2.60976 10.5486C3.08404 9.57143 3.39262 8.57714 3.77547 7.53714L5.0269 7.84L4.84404 9.24572C4.60976 11.0686 5.07833 12.9314 6.25547 14.4229C6.03262 9.83429 7.48405 5.38857 10.7126 2.09714C11.3469 1.45143 12.5126 0.417143 13.2955 0.308571L15.3012 0.0285714L15.4555 0.0114286L15.4612 0Z" fill="url(#paint0_linear_51_141396)"/>
<defs>
<linearGradient id="paint0_linear_51_141396" x1="9.73837" y1="0" x2="9.73837" y2="28" gradientUnits="userSpaceOnUse">
<stop stop-color="#D32300"/>
<stop offset="1" stop-color="#C12814"/>
</linearGradient>
</defs>
</svg>
