<svg width="25" height="25" viewBox="0 0 25 25" fill="none" xmlns="http://www.w3.org/2000/svg">
<path d="M17.0646 16.621C17.5781 16.1039 18.2289 15.8717 18.936 16.0371L24.0506 17.2295C24.4762 17.328 24.9652 17.7115 24.9687 18.1441L24.9933 20.9125C25.0179 23.3643 22.925 25.2005 20.5048 24.9824C18.8023 24.8276 17.1771 24.504 15.559 23.9236C13.8037 23.2939 12.1539 22.4708 10.5992 21.4331C6.27949 18.5487 2.80759 14.3099 1.06284 9.39577C0.489464 7.78821 0.172877 6.18065 0.0181006 4.48866C-0.203511 2.06853 1.63621 -0.0209473 4.08801 0.000158517L6.85639 0.024782C7.27147 0.0282996 7.65841 0.496145 7.7569 0.911226L8.94938 5.98366C9.11823 6.70126 8.94235 7.38016 8.4147 7.89374C7.98555 8.31233 7.56695 8.69927 7.15187 9.14953C6.40965 9.95507 6.29005 11.2109 6.90915 12.136C8.48857 14.5034 10.4971 16.5119 12.8645 18.0914C13.8037 18.7175 15.0982 18.6085 15.8756 17.824L17.0681 16.621H17.0646Z" fill="#C12814"/>
</svg>
