<svg width="57" height="80" viewBox="0 0 57 80" fill="none" xmlns="http://www.w3.org/2000/svg">
<path d="M29.7653 54.5586H11.1514V59.754H29.7653V54.5586Z" fill="url(#paint0_linear_51_165626)"/>
<path d="M14.0787 38.3615H17.8289V36.5175H23.3856V33.7516H17.8289V32.5306H21.7037C22.8374 32.5306 23.8217 32.3437 24.644 31.945C25.4663 31.5588 26.1017 31.0106 26.5378 30.3129C26.9739 29.6027 27.1857 28.7929 27.1857 27.8585C27.1857 26.924 26.9739 26.0893 26.5378 25.3915C26.1017 24.6814 25.4663 24.1456 24.644 23.7469C23.8217 23.3607 22.8374 23.1738 21.7037 23.1738H14.0787V33.7516H12.459V36.5175H14.0787V38.3615ZM17.8289 26.1765H21.4669C22.065 26.1765 22.5384 26.326 22.8748 26.625C23.2112 26.924 23.3856 27.3352 23.3856 27.8585C23.3856 28.3817 23.2112 28.7804 22.8748 29.0795C22.5384 29.3785 22.065 29.528 21.4669 29.528H17.8289V26.1765Z" fill="url(#paint1_linear_51_165626)"/>
<path d="M56.8634 50.0857C56.689 48.6529 56.2903 46.5597 54.708 44.9774L40.8784 31.098V7.3758C40.8784 3.31413 37.4895 0 33.3281 0H7.45055C3.33904 0 0 3.27675 0 7.3135V60.2648C0 64.5133 3.32659 67.8524 7.5876 67.8524H31.235C30.5373 66.1704 30.2134 64.5133 30.0763 63.2799H7.45055C5.8807 63.2799 4.60987 61.9841 4.60987 60.4018V7.45055C4.60987 5.86825 5.79349 4.65971 7.43809 4.5725H33.4278C34.9977 4.5725 36.1813 5.71874 36.3059 7.35088V28.4068V38.86C36.3059 39.4207 36.5177 39.9315 36.9039 40.3052C37.3151 40.7039 37.9006 40.9282 38.4987 40.9033C39.6075 40.8659 40.4921 39.9439 40.4921 38.8226V36.6672L51.7926 48.0299C52.2535 48.4909 52.6398 49.4876 52.6398 50.1978V77.882C52.6522 78.48 52.889 79.0282 53.3001 79.4144C53.6863 79.7882 54.2096 79.9875 54.7578 79.9875C54.7952 79.9875 54.8326 79.9875 54.87 79.9875C56.0037 79.9252 56.8634 79.0282 56.8634 77.882V50.0857Z" fill="url(#paint2_linear_51_165626)"/>
<path d="M33.7142 39.9691C32.8919 39.1718 31.6086 39.1468 30.8112 39.9068C29.6525 41.0032 28.7181 42.3239 28.0079 43.8688C26.6125 47.0085 27.2105 50.4223 29.5404 52.7647L34.2624 57.524C32.8296 61.2867 33.6643 65.448 36.4552 68.2887C36.7791 68.6251 37.2401 68.812 37.7385 68.812C37.7758 68.812 37.8132 68.812 37.8506 68.812C38.4611 68.7746 39.0716 68.4756 39.4204 68.0271C39.9811 67.3294 40.1431 66.1707 39.3831 65.3234C37.6139 63.3424 37.2899 60.5142 38.5732 58.284C39.1339 57.3122 38.9968 56.3404 38.2119 55.543L32.5181 49.8243C30.9358 48.242 31.3843 46.1489 32.406 44.5541L44.1798 55.9542C45.0769 56.8139 46.2979 56.8762 47.17 56.0912C47.5936 55.705 47.8428 55.1443 47.8553 54.5712C47.8553 53.9981 47.631 53.4499 47.2199 53.0388L33.7391 39.9941L33.7142 39.9691Z" fill="url(#paint3_linear_51_165626)"/>
<path d="M33.4274 72.0134C32.4057 71.54 31.546 70.9544 30.7237 70.1695C30.2877 69.7583 29.7395 69.534 29.129 69.5714C28.5434 69.5963 28.0076 69.8704 27.6214 70.319C27.2227 70.7799 27.0607 71.3282 27.148 71.8888C27.3598 73.2344 28.9421 74.2685 30.4372 75.1905V77.9066C30.4372 78.4921 30.6739 79.0279 31.085 79.4266C31.4713 79.8004 31.9946 79.9997 32.5428 79.9997C32.5801 79.9997 32.6175 79.9997 32.6549 79.9997C33.7887 79.9374 34.6483 79.0154 34.6483 77.8443V73.9196C34.6483 73.1472 34.1375 72.3498 33.4274 72.0259V72.0134Z" fill="url(#paint4_linear_51_165626)"/>
<defs>
<linearGradient id="paint0_linear_51_165626" x1="20.4583" y1="54.5586" x2="20.4583" y2="59.754" gradientUnits="userSpaceOnUse">
<stop stop-color="#D32300"/>
<stop offset="1" stop-color="#C12814"/>
</linearGradient>
<linearGradient id="paint1_linear_51_165626" x1="19.8223" y1="23.1738" x2="19.8223" y2="38.3615" gradientUnits="userSpaceOnUse">
<stop stop-color="#D32300"/>
<stop offset="1" stop-color="#C12814"/>
</linearGradient>
<linearGradient id="paint2_linear_51_165626" x1="28.4317" y1="0" x2="28.4317" y2="79.9875" gradientUnits="userSpaceOnUse">
<stop stop-color="#D32300"/>
<stop offset="1" stop-color="#C12814"/>
</linearGradient>
<linearGradient id="paint3_linear_51_165626" x1="37.5595" y1="39.3535" x2="37.5595" y2="68.812" gradientUnits="userSpaceOnUse">
<stop stop-color="#D32300"/>
<stop offset="1" stop-color="#C12814"/>
</linearGradient>
<linearGradient id="paint4_linear_51_165626" x1="30.8867" y1="69.5674" x2="30.8867" y2="79.9997" gradientUnits="userSpaceOnUse">
<stop stop-color="#D32300"/>
<stop offset="1" stop-color="#C12814"/>
</linearGradient>
</defs>
</svg>
