<svg width="24" height="24" viewBox="0 0 24 24" fill="none" xmlns="http://www.w3.org/2000/svg">
<path d="M23.9513 15.6106V17.1559L23.9155 17.3888C23.8438 18.4325 23.6288 19.4359 23.2122 20.3855C22.1237 22.867 19.8035 23.7942 17.2189 23.9599L17.0308 24.0002H15.6736C15.5527 23.9644 15.4317 23.9689 15.2973 23.951L14.3477 23.8345L20.0678 18.101L19.0689 17.1022L13.3399 22.8401C13.0577 20.7662 13.1338 18.5221 14.0073 16.6497C14.5672 15.4672 15.4765 14.5624 16.659 14.007C18.7509 13.0305 21.4071 13.0439 23.6557 13.4963C23.7721 14.0831 23.8617 14.6341 23.9065 15.2209C23.9155 15.3597 23.911 15.4941 23.9468 15.6016L23.9513 15.6106Z" fill="url(#paint0_linear_51_141419)"/>
<path d="M8.28258 23.9863H6.93432C2.57151 23.722 0.287079 21.5899 0.0228021 17.1375C-0.0488662 15.9505 0.0496778 14.6963 0.300517 13.5048C1.85035 13.1867 3.40913 13.1106 4.97688 13.339C7.10006 13.6481 8.93656 14.5932 9.8996 16.5641C10.8626 18.535 10.903 20.7522 10.6163 22.8441L4.88729 17.1061L3.88842 18.105L9.61741 23.8474L8.65436 23.9549L8.2781 23.9863H8.28258Z" fill="url(#paint1_linear_51_141419)"/>
<path d="M12.0275 0C14.8719 1.8589 17.8327 5.11981 16.6367 8.74802C15.9738 10.7637 14.3792 12.4793 12.686 13.7693V5.64389H11.2795V13.7648C9.5953 12.4882 8.00964 10.7816 7.34222 8.78386C6.11042 5.13773 9.0757 1.87234 11.9335 0H12.0275Z" fill="url(#paint2_linear_51_141419)"/>
<defs>
<linearGradient id="paint0_linear_51_141419" x1="18.5723" y1="13.1992" x2="18.5723" y2="24.0002" gradientUnits="userSpaceOnUse">
<stop stop-color="#D32300"/>
<stop offset="1" stop-color="#C12814"/>
</linearGradient>
<linearGradient id="paint1_linear_51_141419" x1="5.38595" y1="13.207" x2="5.38595" y2="23.9863" gradientUnits="userSpaceOnUse">
<stop stop-color="#D32300"/>
<stop offset="1" stop-color="#C12814"/>
</linearGradient>
<linearGradient id="paint2_linear_51_141419" x1="11.9824" y1="0" x2="11.9824" y2="13.7693" gradientUnits="userSpaceOnUse">
<stop stop-color="#D32300"/>
<stop offset="1" stop-color="#C12814"/>
</linearGradient>
</defs>
</svg>
