<svg width="24" height="21" viewBox="0 0 24 21" fill="none" xmlns="http://www.w3.org/2000/svg">
<path d="M22.5228 20.9432H1.50895C0.976443 20.9432 0.538302 20.6534 0.275418 20.2726C0.0125341 19.8917 -0.122278 19.2851 0.147346 18.8267L10.7436 0.687688C11.0166 0.222585 11.5289 -0.00659618 12.0277 0.000144442C12.5265 0.00688506 13.0152 0.252918 13.2882 0.71802L23.7934 18.6953C24.0631 19.1536 24.0664 19.6625 23.817 20.1142C23.5676 20.5658 23.1329 20.9466 22.5262 20.9466L22.5228 20.9432ZM12.8534 12.7702L13.5005 7.49234C13.605 6.64977 12.813 5.97907 12.0311 5.97907C11.2491 5.97907 10.4605 6.64977 10.5616 7.49234L11.1952 12.7028C11.2458 13.1275 11.5929 13.4275 11.9839 13.4477C12.3748 13.4679 12.7961 13.2252 12.8534 12.7736V12.7702ZM13.4938 16.4776C13.4938 15.6552 12.8265 14.9913 12.0075 14.9913C11.1885 14.9913 10.5212 15.6586 10.5212 16.4776C10.5212 17.2966 11.1885 17.9639 12.0075 17.9639C12.8265 17.9639 13.4938 17.2966 13.4938 16.4776Z" fill="#D32300"/>
</svg>
