<svg width="30" height="30" viewBox="0 0 30 30" fill="none" xmlns="http://www.w3.org/2000/svg">
<g clip-path="url(#clip0_104_14)">
<path d="M14.8361 27C12.6845 26.4808 10.6784 25.1759 9.09862 23.6991C7.13314 21.8581 5.65819 19.5889 4.71773 17.0669C3.55063 13.884 3.20219 10.2796 3.76037 6.92807C4.92748 6.9011 6.04722 6.72914 7.19065 6.4594C8.81107 6.05479 10.3334 5.49845 11.832 4.77353C12.8841 4.25766 13.8618 3.68446 14.8158 3C15.8036 3.70469 16.8117 4.29812 17.901 4.82074C19.3353 5.50857 20.7832 6.03456 22.3258 6.42905C23.5065 6.71565 24.6668 6.9011 25.8711 6.92807C26.3854 10.0233 26.1249 13.3141 25.1777 16.2981C23.9124 20.2397 21.2738 23.7496 17.6709 25.83C16.7711 26.3493 15.8712 26.7235 14.8327 27H14.8361ZM24.5383 8.36106C22.8773 8.17898 21.2873 7.77775 19.7108 7.2113C17.9856 6.59427 16.3685 5.82214 14.8191 4.83085V25.4288C17.0958 24.7308 19.2305 23.0483 20.746 21.2445C23.7602 17.6536 24.9307 13.0377 24.5417 8.36106H24.5383Z" fill="url(#paint0_linear_104_14)"/>
</g>
<defs>
<linearGradient id="paint0_linear_104_14" x1="14.8152" y1="3" x2="14.8152" y2="27" gradientUnits="userSpaceOnUse">
<stop stop-color="#D32300"/>
<stop offset="1" stop-color="#C12814"/>
</linearGradient>
<clipPath id="clip0_104_14">
<rect width="23" height="24" fill="white" transform="translate(3.5 3)"/>
</clipPath>
</defs>
</svg>
