<svg width="24" height="24" viewBox="0 0 24 24" fill="none" xmlns="http://www.w3.org/2000/svg">
<path d="M23.9484 1.13518C23.7614 0.438592 23.1938 0 22.4585 0H1.43832C0.632088 0 0 0.632088 0 1.43187V19.0465V22.5681C0 23.3615 0.632088 23.9936 1.43832 24H22.4585C23.1938 24 23.7614 23.5679 23.9484 22.8713V1.19968V1.13518ZM11.9774 7.86885L16.8471 11.7194L16.918 2.86375H21.0911V21.1363H2.86375V2.86375H7.03682V11.8097L11.9839 7.8753L11.9774 7.86885ZM14.0672 5.79844L12.7772 4.93416C12.3193 4.64391 11.7839 4.61811 11.2808 4.87611L9.90057 5.79199V2.8573H14.0736V5.79199L14.0672 5.79844Z" fill="url(#paint0_linear_52_147043)"/>
<path d="M19.1556 16.2666H11.1836V19.111H19.1556V16.2666Z" fill="url(#paint1_linear_52_147043)"/>
<defs>
<linearGradient id="paint0_linear_52_147043" x1="11.9742" y1="0" x2="11.9742" y2="24" gradientUnits="userSpaceOnUse">
<stop stop-color="#D32300"/>
<stop offset="1" stop-color="#C12814"/>
</linearGradient>
<linearGradient id="paint1_linear_52_147043" x1="15.1696" y1="16.2666" x2="15.1696" y2="19.111" gradientUnits="userSpaceOnUse">
<stop stop-color="#D32300"/>
<stop offset="1" stop-color="#C12814"/>
</linearGradient>
</defs>
</svg>
