<svg width="40" height="28" viewBox="0 0 40 28" fill="none" xmlns="http://www.w3.org/2000/svg">
<path d="M0 7.08082V6.55213L0.245007 6.08792L6.06069 0.291657C6.49268 -0.140322 7.23414 -0.0629528 7.62744 0.330342L9.42631 2.12273C10.2967 2.99314 11.5604 3.05117 12.5856 2.43221C14.2555 1.41996 16.3187 1.45865 17.9886 2.48379L12.6694 7.79004C12.0569 8.40255 12.1794 9.09243 12.7146 9.6727C15.4741 12.6514 20.1292 12.9093 23.0371 10.0209L24.6876 8.38321L32.2893 15.9719C32.083 17.7256 31.032 19.2987 29.2525 19.447C28.4917 19.5115 28.0726 20.1047 28.0855 20.8203C28.1048 22.4129 26.7057 23.5863 25.1583 23.4896C24.4555 23.4445 23.9333 24.0505 23.9526 24.7017C23.9849 25.8816 23.2369 26.8423 22.2505 27.2485C21.1222 27.7062 20.0519 27.3129 19.2201 26.4877L0.186979 7.48057L0 7.08082Z" fill="url(#paint0_linear_51_141454)"/>
<path d="M39.9938 6.64928V7.25534L39.723 7.70022L33.514 13.8446L25.4545 5.79822C25.029 5.37269 24.3391 5.4694 23.92 5.79177L21.3346 8.35786C19.6582 10.0149 17.0083 10.0987 15.1514 8.68668L20.6318 3.22568C22.3662 1.49777 25.0999 1.36882 27.0664 2.77436C28.0916 3.50292 29.4198 3.38042 30.3031 2.50357L32.3341 0.479069C32.7983 0.0212999 33.514 0.0212999 33.9975 0.479069L39.7681 6.24309L40.0002 6.66218L39.9938 6.64928Z" fill="url(#paint1_linear_51_141454)"/>
<defs>
<linearGradient id="paint0_linear_51_141454" x1="16.1446" y1="0" x2="16.1446" y2="27.4422" gradientUnits="userSpaceOnUse">
<stop stop-color="#D32300"/>
<stop offset="1" stop-color="#C12814"/>
</linearGradient>
<linearGradient id="paint1_linear_51_141454" x1="27.5758" y1="0.135742" x2="27.5758" y2="13.8446" gradientUnits="userSpaceOnUse">
<stop stop-color="#D32300"/>
<stop offset="1" stop-color="#C12814"/>
</linearGradient>
</defs>
</svg>
