<svg width="24" height="24" viewBox="0 0 24 24" fill="none" xmlns="http://www.w3.org/2000/svg">
<path d="M23.9978 1.7912L24 10.5923C23.8386 11.0511 23.7283 11.5836 23.3469 11.9657L11.9007 23.4134C11.5654 23.7487 11.1548 23.9021 10.7362 23.9971L10.2234 23.9919C9.81288 23.8824 9.41548 23.7589 9.08676 23.4309L0.57127 14.9081C-0.184071 14.1521 -0.195029 12.8876 0.566157 12.1264L12.0161 0.677177C12.385 0.308273 13.0278 0.0189931 13.5494 0.0175321L22.1547 0C23.1519 0.113959 23.8495 0.832775 23.9978 1.7912ZM19.9946 5.9989C19.9946 4.8973 19.102 4.00462 18.0004 4.00462C16.8988 4.00462 16.0061 4.8973 16.0061 5.9989C16.0061 7.1005 16.8988 7.99318 18.0004 7.99318C19.102 7.99318 19.9946 7.1005 19.9946 5.9989Z" fill="white"/>
</svg>
