<svg width="30" height="30" viewBox="0 0 30 30" fill="none" xmlns="http://www.w3.org/2000/svg">
<g clip-path="url(#clip0_104_14)">
<path d="M16.005 16.1572C15.4363 16.7145 14.5354 16.6869 13.9865 16.149L5.81641 8.14345C6.03882 8.03034 6.26404 8 6.53994 8H23.5444C23.7866 8 23.9893 8.04966 24.1863 8.14345L16.0078 16.1545L16.005 16.1572Z" fill="#62A8B1"/>
<path d="M24.1778 21.8513C23.9723 21.9754 23.733 22.003 23.4599 22.003H6.4976C6.23859 22.003 6.02463 21.9617 5.81348 21.8596L12.1395 15.661L13.3191 16.8086C14.2425 17.7079 15.7346 17.7327 16.6609 16.8279L17.8574 15.6582L24.1778 21.8513Z" fill="#62A8B1"/>
<path d="M5.1464 21.2C5.06194 21.0207 5 20.8496 5 20.6317V9.32687C5.02534 9.11446 5.06475 8.95722 5.14921 8.80273L11.4724 14.9986L5.1464 21.2Z" fill="#62A8B1"/>
<path d="M24.9998 20.6095C24.9998 20.8467 24.9491 20.9901 24.8562 21.2026L18.5273 15.0012L24.8534 8.7998C24.9434 8.98187 24.9829 9.14739 24.9998 9.36808V20.6095Z" fill="#62A8B1"/>
</g>
<defs>
<clipPath id="clip0_104_14">
<rect width="20" height="14" fill="white" transform="translate(5 8)"/>
</clipPath>
</defs>
</svg>
