<svg width="20" height="21" viewBox="0 0 20 21" fill="none" xmlns="http://www.w3.org/2000/svg">
<path d="M18.6964 21C18.3413 20.8892 18.0955 20.6354 17.8452 20.3723C16.3384 18.7801 14.8271 17.1924 13.3203 15.6002C13.2702 15.5448 13.2202 15.4894 13.1655 15.4294C10.9213 16.934 8.50868 17.3586 5.93216 16.5832C4.02481 16.0063 2.50894 14.8433 1.40732 13.1633C-0.968904 9.53116 -0.276977 4.76363 3.03699 1.9668C6.19163 -0.691571 10.6345 -0.626958 13.7254 1.98988C14.8726 2.95907 15.7011 4.16365 16.22 5.58514C16.7344 6.9974 16.8528 8.45581 16.5979 9.94191C16.3429 11.4326 15.7238 12.7572 14.7633 13.9295C14.8635 14.0356 14.9545 14.1372 15.0501 14.2341C16.5751 15.8402 18.0955 17.4417 19.6205 19.0478C20.0939 19.5462 20.1349 20.2108 19.6842 20.6539C19.5294 20.8062 19.2973 20.8846 19.1015 21H18.6964ZM8.36756 2.22064C4.97166 2.22064 2.1994 5.02208 2.19029 8.47427C2.18119 11.9218 4.98531 14.7648 8.37212 14.7418C11.7908 14.7187 14.5403 11.9265 14.5357 8.47889C14.5357 5.0267 11.7635 2.22064 8.36301 2.22064H8.36756Z" fill="#C12814"/>
</svg>
