<svg width="28" height="33" viewBox="0 0 28 33" fill="none" xmlns="http://www.w3.org/2000/svg">
<path d="M11.9643 19.3008C11.419 18.986 11.245 18.4114 11.495 17.9235C11.7961 17.402 12.3945 17.2417 12.916 17.5428C15.3616 18.8915 18.8631 17.9733 20.4151 15.6136C20.969 14.7638 21.4481 13.934 21.9071 13.0294C22.7083 11.5322 22.7636 9.79391 22.1695 8.2497C21.3402 6.1272 19.3498 4.75673 17.0679 4.76694C14.9831 4.76445 13.1241 5.90386 12.0601 7.69196C11.759 8.21353 11.1369 8.36016 10.6527 8.04901C10.1686 7.73786 10.0794 7.1806 10.3805 6.65903C11.5266 4.72869 13.3592 3.41599 15.5208 2.95703C19.2968 2.16571 23.0526 4.36576 24.1942 8.02782C24.8301 10.1019 24.6333 12.3591 23.5146 14.242L22.1869 16.5416C21.6257 17.5137 20.8211 18.2503 19.8642 18.8674C18.2569 19.8993 16.3671 20.3255 14.4902 20.127C13.6011 20.0246 12.7703 19.7662 11.9506 19.3245L11.9643 19.3008Z" fill="#C12814"/>
<path d="M6.90981 16.6673C6.39334 17.5071 5.95534 18.2657 5.51367 19.0854C4.56188 20.8435 4.60681 22.9557 5.57024 24.6815C6.60113 26.5095 8.56252 27.5471 10.6547 27.4274C12.6247 27.3003 14.3341 26.201 15.3433 24.5077C15.6308 24.0099 16.2528 23.8632 16.7032 24.1233C17.2011 24.4107 17.3477 25.0328 17.0229 25.5406C15.9042 27.4236 14.0953 28.75 11.9574 29.2226C8.17775 30.075 4.41825 27.9361 3.22927 24.2467C2.58969 22.2337 2.74543 20.0476 3.75563 18.1337L5.02858 15.9288C6.48314 13.3547 9.34182 11.9074 12.2547 12.0086C13.3683 12.0509 14.406 12.334 15.4291 12.8615C15.9881 13.1526 16.1958 13.7783 15.8947 14.2998C15.5799 14.8451 14.9515 14.8933 14.4163 14.6158C11.9944 13.2808 8.45186 14.2701 6.93351 16.6809L6.90981 16.6673Z" fill="#C12814"/>
</svg>
