<svg width="30" height="30" viewBox="0 0 30 30" fill="none" xmlns="http://www.w3.org/2000/svg">
<g clip-path="url(#clip0_104_14)">
<path d="M20.4612 1L19.1298 2.50286C17.5126 4.30286 17.7126 6.49143 19.0726 8.41143C19.4726 8.98286 19.9069 9.49143 20.364 10.0171C20.9926 10.7429 21.5755 11.4514 22.1526 12.2171C23.8155 14.4171 24.6212 17.0514 24.4555 19.8C24.164 24.6 20.3983 28.5314 15.5926 28.9486L15.2726 29L14.1755 28.9886L13.8212 28.9486C7.83262 28.3714 3.7869 22.5371 5.32976 16.72C5.51262 16.0229 5.7869 15.3314 6.11833 14.6457L7.60976 11.5486C8.08404 10.5714 8.39262 9.57714 8.77547 8.53714L10.0269 8.84L9.84404 10.2457C9.60976 12.0686 10.0783 13.9314 11.2555 15.4229C11.0326 10.8343 12.484 6.38857 15.7126 3.09714C16.3469 2.45143 17.5126 1.41714 18.2955 1.30857L20.3012 1.02857L20.4555 1.01143L20.4612 1Z" fill="url(#paint0_linear_104_14)"/>
</g>
<defs>
<linearGradient id="paint0_linear_104_14" x1="14.7384" y1="1" x2="14.7384" y2="29" gradientUnits="userSpaceOnUse">
<stop stop-color="#D32300"/>
<stop offset="1" stop-color="#C12814"/>
</linearGradient>
<clipPath id="clip0_104_14">
<rect width="20" height="28" fill="white" transform="translate(5 1)"/>
</clipPath>
</defs>
</svg>
