<svg width="16" height="16" viewBox="0 0 16 16" fill="none" xmlns="http://www.w3.org/2000/svg">
<path d="M0 6.43716V7.31221L0.0287495 7.45665C0.2225 9.94276 1.80208 12.1074 3.97917 13.1081C6.42917 14.2341 9.23417 13.8445 11.2704 12.1571L15.0962 16H15.1258L16 15.1254V15.0957L12.1554 11.2708C14.0867 8.95708 14.2846 5.62934 12.6133 3.09188C10.9913 0.629158 7.95833 -0.555237 5.02333 0.251338C2.34125 0.98861 0.265416 3.3812 0.03125 6.26683C0.0266666 6.32319 0.0174999 6.38623 0 6.43716ZM1.25167 6.8726C1.25167 3.76779 3.76833 1.25121 6.87333 1.25121C9.97833 1.25121 12.4946 3.76779 12.4946 6.8726C12.4946 9.97741 9.97792 12.494 6.87292 12.494C3.76792 12.494 1.25125 9.97699 1.25125 6.8726H1.25167Z" fill="white"/>
</svg>
