<svg width="30" height="30" viewBox="0 0 30 30" fill="none" xmlns="http://www.w3.org/2000/svg">
<path d="M22.7355 30C17.7385 30 12.7355 30 7.73845 30C7.61248 29.982 6.34673 29.958 5.53089 29.796C2.83743 29.4181 0.683863 27.3185 0.227955 24.6371C0.113977 23.9712 0.0719856 23.2933 0 22.6155C0 17.4745 0 12.3395 0 7.19856C0.0419916 6.79064 0.0899816 6.38872 0.113977 5.9808C0.329934 2.82543 2.97541 0.395921 5.71086 0.14997C6.18476 0.107978 6.66467 0.0539892 7.13857 0C12.3755 0 17.6185 0 22.8554 0C23.2513 0.0419916 23.6473 0.089982 24.0492 0.119976C27.2226 0.353929 29.4901 2.9814 29.802 5.41692C29.88 6.02879 29.934 6.64667 29.994 7.26455C29.994 12.4235 29.994 17.5825 29.994 22.7415C29.952 23.1794 29.904 23.6113 29.874 24.0492C29.6461 27.1746 27.0246 29.5981 24.2831 29.844C23.7672 29.892 23.2513 29.952 22.7355 30ZM3.62327 15.3449C3.65327 17.2885 4.03719 19.1782 4.55309 21.0438C4.89502 22.2975 5.22495 23.5573 5.24895 24.871C5.26695 25.8008 5.66887 26.2028 6.61068 26.1788C7.89442 26.1488 8.9922 25.6269 9.91601 24.7511C10.132 24.5471 10.2579 24.5411 10.4919 24.7091C11.3317 25.3149 12.2316 25.8188 13.2753 25.9808C15.5189 26.3287 17.7025 26.1008 19.784 25.147C24.1392 23.1674 26.7367 18.7403 26.3467 13.9652C26.0888 10.8278 24.781 8.20636 22.3875 6.15477C17.8404 2.26155 11.0018 2.84343 6.93461 6.88662C4.58308 9.21416 3.53329 12.0636 3.62327 15.3449Z" fill="#C12814"/>
<path d="M9.19629 16.1191C9.22028 14.7694 9.41225 13.4617 10.0121 12.2439C11.6978 8.80659 16.0589 7.97276 18.9023 10.5462C20.726 12.1959 21.3379 14.6974 20.45 16.917C19.5622 19.1365 17.3187 20.6302 14.9191 20.5822C13.9773 20.5642 13.1075 20.2703 12.3097 19.7904C12.0637 19.6464 11.9017 19.6404 11.6858 19.8444C11.4218 20.0963 11.1159 20.3183 10.804 20.5103C10.438 20.7382 10.2341 20.6782 10.0181 20.2943C9.6282 19.5924 9.47823 18.8126 9.37026 18.0267C9.28627 17.3969 9.25028 16.755 9.19629 16.1191Z" fill="#C12814"/>
</svg>
