<?xml-stylesheet type="text/css" href="svgstyle.css"?>   
<svg xmlns="http://www.w3.org/2000/svg" xmlns:xlink="http://www.w3.org/1999/xlink">
	<symbol id="faq" width="40" height="41" viewBox="0 0 40 41" fill="none" xmlns="http://www.w3.org/2000/svg">
		<path d="M35.1612 6.98576C29.3926 0.251868 19.8548 -1.88551 11.788 1.76872C1.56072 6.41119 -2.85193 18.4541 1.92844 28.6123L1.99739 37.9203L11.4432 38.1041C19.5331 41.9422 29.0479 39.9198 34.9084 33.3467C41.5963 25.8774 41.7112 14.593 35.1612 7.00874V6.98576ZM21.9462 29.8994C21.3717 30.428 20.6133 30.7038 19.671 30.7038C18.7287 30.7038 17.9703 30.428 17.3957 29.8994C16.8211 29.3708 16.5224 28.6583 16.5224 27.808C16.5224 26.9576 16.8211 26.2222 17.3957 25.6936C17.9703 25.165 18.7287 24.8892 19.671 24.8892C20.6133 24.8892 21.3717 25.165 21.9462 25.6936C22.5208 26.2222 22.7966 26.9346 22.7966 27.808C22.7966 28.6813 22.5208 29.3708 21.9462 29.8994ZM28.3354 18.3621C27.7838 19.1435 26.9564 19.81 25.8303 20.3156L23.4861 21.4188C23.0494 21.6256 22.7506 21.8555 22.5208 22.1083C22.291 22.3611 22.1991 22.6828 22.1991 23.0735V23.5102H17.2808C17.2348 23.3264 17.1889 23.1655 17.1659 23.0046C17.1659 22.8437 17.1429 22.7058 17.1429 22.5449C17.1429 21.6946 17.3727 20.9592 17.8554 20.2927C18.338 19.6491 19.1194 19.0746 20.1996 18.569L22.3599 17.6037C22.8196 17.3739 23.1643 17.1211 23.4171 16.8453C23.647 16.5695 23.7848 16.2477 23.7848 15.903C23.7848 15.2135 23.4861 14.6619 22.8655 14.2712C22.268 13.8805 21.3947 13.6737 20.2455 13.6737C19.0964 13.6737 18.1311 13.9265 17.4417 14.4321C16.7522 14.9377 16.3385 15.6272 16.2236 16.5235H10.8457C10.9836 14.2712 11.9029 12.5016 13.5576 11.2375C15.2124 9.97349 17.4417 9.32998 20.2455 9.32998C23.0494 9.32998 25.2557 9.88156 26.8185 11.0077C28.3814 12.1339 29.1857 13.6967 29.1857 15.7191C29.1857 16.7074 28.91 17.6037 28.3584 18.3851L28.3354 18.3621Z"/>
	</symbol>
</svg>