<svg width="24" height="25" viewBox="0 0 24 25" fill="none" xmlns="http://www.w3.org/2000/svg">
<path d="M24 12.0234C24 18.6641 18.6267 24.0468 12 24.0468C5.37334 24.0468 0 18.6641 0 12.0234C0 5.3827 5.37334 0 12 0C18.6267 0 24 5.3827 24 12.0234ZM15.8815 11.2237L15.0818 12.0421C14.675 12.4583 14.7685 13.1364 15.1473 13.5105C15.5495 13.908 16.2182 13.9501 16.6345 13.5433L17.3313 12.8605C19.0616 11.1769 19.1177 8.43648 17.4856 6.6968C15.8535 4.95713 13.1037 4.84489 11.3406 6.50039C11.032 6.79033 10.7467 7.08496 10.4567 7.40296C10.0592 7.82853 10.1341 8.50663 10.5409 8.8901C10.9244 9.25019 11.5791 9.32502 11.9813 8.92751L12.7576 8.16524C13.6274 7.30943 14.9977 7.2954 15.8488 8.14186C16.6999 8.98831 16.742 10.3398 15.8815 11.2237ZM11.5838 13.9829L13.9688 11.5931C14.3991 11.1629 14.3196 10.4661 13.9174 10.0779C13.5152 9.68979 12.8465 9.63367 12.4302 10.0546L10.0125 12.4864C9.59158 12.9072 9.69914 13.6041 10.0826 13.9735C10.4661 14.3429 11.1489 14.4224 11.5838 13.9875V13.9829ZM12.0047 15.1239L11.191 15.9236C10.3258 16.7701 8.95557 16.7186 8.12782 15.8769C7.30008 15.0351 7.28605 13.6695 8.12782 12.809L8.91348 12.0047C9.32034 11.5885 9.22681 10.9104 8.84801 10.5362C8.46921 10.1621 7.80514 10.0966 7.38893 10.4801C7.06625 10.7841 6.76228 11.074 6.46298 11.392C4.82151 13.1691 4.97116 15.933 6.71083 17.5464C8.45051 19.1598 11.1629 19.0943 12.8371 17.3687L13.5152 16.6672C13.9174 16.251 13.8753 15.5776 13.4825 15.18C13.0896 14.7825 12.4302 14.7077 12.0047 15.1286V15.1239Z" fill="url(#paint0_linear_51_141394)"/>
<defs>
<linearGradient id="paint0_linear_51_141394" x1="12" y1="0" x2="12" y2="24.0468" gradientUnits="userSpaceOnUse">
<stop stop-color="#D32300"/>
<stop offset="1" stop-color="#C12814"/>
</linearGradient>
</defs>
</svg>
