<svg width="19" height="28" viewBox="0 0 19 28" fill="none" xmlns="http://www.w3.org/2000/svg">
<path d="M7.85715 27.767C7.6953 28.0047 7.48794 28.0401 7.28058 27.9642C7.09851 27.9035 6.97207 27.7113 6.9923 27.4635L7.88243 16.3318H0.52873C0.326427 16.3318 0.149413 16.2458 0.0684915 16.1143C-0.0377174 15.9323 -0.0174872 15.7401 0.108952 15.5529L10.7905 0.208281C10.9321 0.00597801 11.1547 -0.0395401 11.3519 0.0312659C11.534 0.0970142 11.6604 0.289202 11.6402 0.531965L10.7501 11.6637H18.0987C18.301 11.6637 18.478 11.7446 18.559 11.8811C18.6601 12.0632 18.6449 12.2554 18.5185 12.4425L7.85715 27.7619V27.767Z" fill="url(#paint0_linear_51_141430)"/>
<defs>
<linearGradient id="paint0_linear_51_141430" x1="9.31268" y1="0" x2="9.31268" y2="28" gradientUnits="userSpaceOnUse">
<stop stop-color="#D32300"/>
<stop offset="1" stop-color="#C12814"/>
</linearGradient>
</defs>
</svg>
