<svg width="24" height="24" viewBox="0 0 24 24" fill="none" xmlns="http://www.w3.org/2000/svg">
<path d="M20.8875 20.0984H16.4953C16.0664 20.0984 15.6251 19.7849 15.6251 19.3148V11.7304L14.2023 11.7222C13.8929 11.7222 13.6125 11.516 13.497 11.2974C13.3444 11.0046 13.3444 10.6747 13.5424 10.4066L18.0295 4.23685C18.1944 4.01002 18.4666 3.91104 18.71 3.91516C18.9863 3.91516 19.2214 4.05126 19.3987 4.29871L23.8404 10.4066C24.026 10.6623 24.0384 10.9757 23.9023 11.2644C23.8074 11.4747 23.5311 11.7181 23.2259 11.7181L21.7618 11.7304V19.2158C21.7618 19.7272 21.3948 20.0942 20.8875 20.0942V20.0984Z" fill="url(#paint0_linear_51_141398)"/>
<path d="M10.5978 12.7158C13.3899 15.1243 13.5837 19.3433 11.0762 21.9951C8.55222 24.6593 4.32496 24.6676 1.7886 22.024C-0.743631 19.3887 -0.578664 15.1449 2.22989 12.7199V4.21175C2.22576 1.89398 4.06101 0.0504785 6.3293 0.000988566C8.60171 -0.0485013 10.5896 1.76613 10.5937 4.10865V12.7158H10.5978ZM9.2492 13.7757C9.05537 13.6272 8.92752 13.3798 8.92752 13.1406V4.21175C8.92752 2.77242 7.781 1.66302 6.37879 1.67952C4.97658 1.69602 3.90429 2.80129 3.90429 4.21175V13.0952C3.90429 13.4004 3.77232 13.6355 3.55787 13.8004C1.30195 15.5161 1.04625 18.77 2.94749 20.8156C4.84873 22.8612 8.07794 22.8241 9.94206 20.7537C11.8062 18.6834 11.5092 15.479 9.2492 13.7798V13.7757Z" fill="url(#paint1_linear_51_141398)"/>
<path d="M7.24855 14.0437C9.03431 14.4808 10.2097 16.1511 10.0241 17.9492C9.83852 19.7474 8.29609 21.1826 6.46908 21.2073C4.62146 21.2321 3.05428 19.867 2.81508 18.0523C2.57588 16.2171 3.74714 14.4932 5.57414 14.0478V4.16631C5.57414 3.67553 6.00718 3.34148 6.41959 3.35385C6.88562 3.36622 7.24855 3.71677 7.24855 4.2158V14.0478V14.0437Z" fill="url(#paint2_linear_51_141398)"/>
<defs>
<linearGradient id="paint0_linear_51_141398" x1="18.6906" y1="3.91504" x2="18.6906" y2="20.0984" gradientUnits="userSpaceOnUse">
<stop stop-color="#D32300"/>
<stop offset="1" stop-color="#C12814"/>
</linearGradient>
<linearGradient id="paint1_linear_51_141398" x1="6.41616" y1="0" x2="6.41616" y2="24" gradientUnits="userSpaceOnUse">
<stop stop-color="#D32300"/>
<stop offset="1" stop-color="#C12814"/>
</linearGradient>
<linearGradient id="paint2_linear_51_141398" x1="6.41376" y1="3.35352" x2="6.41376" y2="21.2077" gradientUnits="userSpaceOnUse">
<stop stop-color="#D32300"/>
<stop offset="1" stop-color="#C12814"/>
</linearGradient>
</defs>
</svg>
