<svg width="22" height="24" viewBox="0 0 22 24" fill="none" xmlns="http://www.w3.org/2000/svg">
<path d="M11.9574 22.7917C11.9574 23.4979 11.3836 24.0055 10.7381 24C10.0926 23.9944 9.54085 23.4482 9.53534 22.7586V21.0372L8.43741 22.0358C7.93534 22.4938 7.20707 22.5324 6.72155 22.0634C6.23603 21.5944 6.21396 20.8055 6.72155 20.3144L9.54086 17.7655V14.1076L6.37396 15.9393L5.57948 19.6358C5.43603 20.2979 4.79052 20.6786 4.16155 20.5517C3.53259 20.4248 3.08018 19.8289 3.21259 19.1834L3.53811 17.5779L2.05397 18.4331C1.45811 18.7807 0.718802 18.582 0.387768 18.0138C0.023631 17.3958 0.249837 16.6676 0.867767 16.3089L2.32432 15.4703L0.933974 15.0179C0.266389 14.7972 -0.141886 14.1848 0.0456999 13.5007C0.222251 12.8607 0.900871 12.4634 1.57397 12.6731L5.15466 13.8372L8.32706 12.0055L5.16569 10.1738L1.57397 11.3324C0.900871 11.5476 0.222251 11.1338 0.0456999 10.5048C-0.141886 9.81516 0.266389 9.20274 0.933974 8.98205L2.32432 8.52964L0.834664 7.66895C0.233286 7.32137 0.0401827 6.58206 0.387768 5.9862C0.735354 5.39034 1.45811 5.22482 2.05397 5.56689L3.53811 6.42757L3.22363 4.95447C3.08018 4.27034 3.45535 3.61379 4.11742 3.4593C4.77948 3.30482 5.43603 3.7131 5.585 4.40827L6.36293 8.06619L9.52982 9.89791V6.23999L6.7712 3.74068C6.23603 3.27724 6.20845 2.49379 6.66638 1.99172C7.12431 1.48965 7.8912 1.4731 8.40431 1.94207L9.52982 2.96275L9.54086 1.19724C9.54637 0.51862 10.1091 0 10.7381 0C11.4277 0 11.9629 0.535171 11.9629 1.23586V2.95724L13.1657 1.88689C13.6677 1.44 14.4457 1.53379 14.8595 2.01931C15.2733 2.50482 15.2457 3.27172 14.7381 3.72413L11.9629 6.22895V9.8924L15.1298 8.06619L15.9298 4.34206C16.0677 3.69103 16.7298 3.33241 17.3202 3.44275C17.9657 3.55861 18.4236 4.18206 18.2912 4.84413L17.9712 6.42206L19.4001 5.58896C20.0015 5.23585 20.7408 5.37378 21.105 5.95861C21.4691 6.54344 21.2705 7.31585 20.6526 7.67447L19.1905 8.52412L20.6636 9.01516C21.3091 9.23033 21.6457 9.8924 21.4526 10.5214C21.2595 11.1503 20.6029 11.52 19.9464 11.3324L16.3436 10.1627L13.1822 11.9945L16.3436 13.8317L19.8636 12.6841C20.5312 12.4689 21.2098 12.7779 21.436 13.4345C21.6622 14.091 21.3146 14.7586 20.6581 14.9793L19.1905 15.4703L20.6526 16.32C21.2595 16.6731 21.4691 17.4069 21.127 18.0027C20.785 18.5986 20.0401 18.7751 19.4388 18.422L17.9712 17.5724L18.2857 19.1062C18.4236 19.7682 18.0153 20.4027 17.3588 20.5462C16.7629 20.6786 16.0733 20.3144 15.9298 19.6524L15.1353 15.9338L11.9684 14.102V17.7655L14.7933 20.32C15.2622 20.7944 15.2677 21.5227 14.8374 22.0027C14.4071 22.4827 13.6402 22.5379 13.1381 22.091L11.9684 21.0372V22.7917H11.9574Z" fill="url(#paint0_linear_51_141390)"/>
<defs>
<linearGradient id="paint0_linear_51_141390" x1="10.7534" y1="0" x2="10.7534" y2="24" gradientUnits="userSpaceOnUse">
<stop stop-color="#D32300"/>
<stop offset="1" stop-color="#C12814"/>
</linearGradient>
</defs>
</svg>
