<svg width="20" height="28" viewBox="0 0 20 28" fill="none" xmlns="http://www.w3.org/2000/svg">
<path d="M17.2093 0C18.2262 0.0213338 19.0369 0.803573 19.0369 1.80626V5.06322L14.4785 9.32999L14.4074 9.69266L4.6081 13.867V9.36554L0 5.06322V1.85604C0 0.83913 0.796462 0.0355563 1.81337 0H6.17969C7.16816 0.00711127 7.97173 0.824907 7.97885 1.79915L8.00729 4.15298C8.00729 4.76455 8.54064 5.22678 9.10954 5.22678H9.93445C10.5033 5.22678 11.0296 4.76455 11.0367 4.15298L11.058 1.85604C11.0651 0.860464 11.8474 0.00711127 12.8643 0.00711127H17.2022L17.2093 0Z" fill="url(#paint0_linear_51_141413)"/>
<path d="M4.61551 18.7875L4.6084 15.8719L14.4362 11.6904V14.6061L4.61551 18.7875Z" fill="url(#paint1_linear_51_141413)"/>
<path d="M4.78618 23.6382C4.70796 23.5671 4.65107 23.5031 4.6084 23.4391V20.7937L14.4433 16.6123V19.5279L4.79329 23.6382H4.78618Z" fill="url(#paint2_linear_51_141413)"/>
<path d="M9.77829 27.8904C9.65029 28.0042 9.44406 28.0397 9.33739 27.9473L6.22266 25.0388L14.4362 21.54L14.422 23.5454L9.77118 27.8975L9.77829 27.8904Z" fill="url(#paint3_linear_51_141413)"/>
<defs>
<linearGradient id="paint0_linear_51_141413" x1="9.51844" y1="0" x2="9.51844" y2="13.867" gradientUnits="userSpaceOnUse">
<stop stop-color="#D32300"/>
<stop offset="1" stop-color="#C12814"/>
</linearGradient>
<linearGradient id="paint1_linear_51_141413" x1="9.52229" y1="11.6904" x2="9.52229" y2="18.7875" gradientUnits="userSpaceOnUse">
<stop stop-color="#D32300"/>
<stop offset="1" stop-color="#C12814"/>
</linearGradient>
<linearGradient id="paint2_linear_51_141413" x1="9.52584" y1="16.6123" x2="9.52584" y2="23.6382" gradientUnits="userSpaceOnUse">
<stop stop-color="#D32300"/>
<stop offset="1" stop-color="#C12814"/>
</linearGradient>
<linearGradient id="paint3_linear_51_141413" x1="10.3294" y1="21.54" x2="10.3294" y2="28" gradientUnits="userSpaceOnUse">
<stop stop-color="#D32300"/>
<stop offset="1" stop-color="#C12814"/>
</linearGradient>
</defs>
</svg>
