<svg width="23" height="24" viewBox="0 0 23 24" fill="none" xmlns="http://www.w3.org/2000/svg">
<path d="M11.3361 24C9.18452 23.4808 7.17844 22.1759 5.59862 20.6991C3.63314 18.8581 2.15819 16.5889 1.21773 14.0669C0.0506265 10.884 -0.297814 7.27957 0.260368 3.92807C1.42748 3.9011 2.54722 3.72914 3.69065 3.4594C5.31107 3.05479 6.83339 2.49845 8.33202 1.77353C9.38411 1.25766 10.3618 0.684462 11.3158 0C12.3036 0.704692 13.3117 1.29812 14.401 1.82074C15.8353 2.50857 17.2832 3.03456 18.8258 3.42905C20.0065 3.71565 21.1668 3.9011 22.3711 3.92807C22.8854 7.02332 22.6249 10.3141 21.6777 13.2981C20.4124 17.2397 17.7738 20.7496 14.1709 22.83C13.2711 23.3493 12.3712 23.7235 11.3327 24H11.3361ZM21.0383 5.36106C19.3773 5.17898 17.7873 4.77775 16.2108 4.2113C14.4856 3.59427 12.8685 2.82214 11.3191 1.83085V22.4288C13.5958 21.7308 15.7305 20.0483 17.246 18.2445C20.2602 14.6536 21.4307 10.0377 21.0417 5.36106H21.0383Z" fill="url(#paint0_linear_51_141392)"/>
<defs>
<linearGradient id="paint0_linear_51_141392" x1="11.3152" y1="0" x2="11.3152" y2="24" gradientUnits="userSpaceOnUse">
<stop stop-color="#D32300"/>
<stop offset="1" stop-color="#C12814"/>
</linearGradient>
</defs>
</svg>
