<svg width="40" height="39" viewBox="0 0 40 39" fill="none" xmlns="http://www.w3.org/2000/svg">
<path d="M35.7929 15.8713C34.3616 13.998 34.8878 12.6158 34.6843 10.4057C34.5861 9.33218 33.9827 8.49023 32.9934 8.05522C30.9867 7.17118 29.4502 7.25537 28.1171 5.33993C27.661 4.68742 27.198 4.06298 26.6717 3.47361C25.9421 2.65271 24.9317 2.32996 23.8512 2.59658C21.7183 3.1228 20.5045 3.9858 18.3014 3.22804C17.5717 2.97546 16.835 2.75795 16.0912 2.58255C14.0635 2.11246 13.0041 3.73321 11.8885 5.33993C10.5344 7.29747 8.96272 7.16416 6.96309 8.08329C6.00888 8.5183 5.42653 9.36726 5.3283 10.4127C5.13185 12.6018 5.63702 14.005 4.2478 15.8292C3.041 17.4149 1.83421 18.8883 2.92874 20.7476C3.31464 21.4001 3.75666 22.0176 4.21973 22.621C5.65105 24.4803 5.13185 25.8625 5.3283 28.0796C5.41951 29.125 6.00186 29.967 6.96309 30.409C8.99079 31.3352 10.5274 31.1808 11.9236 33.1945C13.0251 34.7872 14.0846 36.3728 16.0912 35.9098C18.4908 35.3485 19.2205 34.5276 21.7674 35.2783L23.9144 35.9098C25.8298 36.4711 27.0647 34.6819 28.082 33.2015C29.4361 31.2299 31.0148 31.3211 33.0425 30.416C33.9827 29.9951 34.565 29.1882 34.6703 28.1638C34.9299 25.7362 34.2844 24.8171 35.7929 22.635L37.0488 20.8108C38.1644 18.9515 37.0067 17.471 35.7929 15.8783V15.8713ZM23.2268 21.1546L25.2194 27.2868L19.9993 23.498L14.7792 27.2868L16.7718 21.1546L11.5517 17.3658H17.9997L19.9923 11.2336L21.9849 17.3658H28.4328L23.2127 21.1546H23.2268Z" fill="url(#paint0_linear_102_7)"/>
<defs>
<linearGradient id="paint0_linear_102_7" x1="20" y1="2.5" x2="20" y2="36.0153" gradientUnits="userSpaceOnUse">
<stop stop-color="#D32300"/>
<stop offset="1" stop-color="#C12814"/>
</linearGradient>
</defs>
</svg>
