<svg width="40" height="36" viewBox="0 0 40 36" fill="none" xmlns="http://www.w3.org/2000/svg">
<g clip-path="url(#clip0_102_12)">
<path d="M6.767 18.9765L16.2448 22.3262V19.5215H23.7486L23.7619 22.3262L33.0934 19.0296C35.526 18.1722 37.2341 16.0387 37.5 13.5264V9.83764L28.4875 9.83099V5.13862L25.8488 2.5H14.1445L11.5059 5.13862V9.82434H2.5V13.533C2.76586 15.9789 4.39423 18.0991 6.767 18.9765ZM14.1512 5.13862H25.8555V9.83764L14.1512 9.82434V5.13862Z" fill="url(#paint0_linear_102_12)"/>
<path d="M23.7493 24.9985L19.9742 29.5978L16.2655 25.0384L6.17622 20.9442C5.23907 20.6185 4.4548 20.1665 3.65723 19.5684V33.1669H36.3509V19.5684C35.5268 20.1998 34.7159 20.6384 33.7189 20.9907L23.7493 25.0051V24.9985Z" fill="url(#paint1_linear_102_12)"/>
<path d="M18.2979 24.7985L19.9661 26.5266L21.7075 24.8384V21.5684H18.2979V24.7985Z" fill="url(#paint2_linear_102_12)"/>
</g>
<defs>
<linearGradient id="paint0_linear_102_12" x1="20" y1="2.5" x2="20" y2="22.3262" gradientUnits="userSpaceOnUse">
<stop stop-color="#D32300"/>
<stop offset="1" stop-color="#C12814"/>
</linearGradient>
<linearGradient id="paint1_linear_102_12" x1="20.0041" y1="19.5684" x2="20.0041" y2="33.1669" gradientUnits="userSpaceOnUse">
<stop stop-color="#D32300"/>
<stop offset="1" stop-color="#C12814"/>
</linearGradient>
<linearGradient id="paint2_linear_102_12" x1="20.0027" y1="21.5684" x2="20.0027" y2="26.5266" gradientUnits="userSpaceOnUse">
<stop stop-color="#D32300"/>
<stop offset="1" stop-color="#C12814"/>
</linearGradient>
<clipPath id="clip0_102_12">
<rect width="35" height="31" fill="white" transform="translate(2.5 2.5)"/>
</clipPath>
</defs>
</svg>
